# Created by Metasequoia

v -0.353951 -0.031661 -0.023578
v -0.353951 0.093903 -0.023578
v -0.353951 -0.031661 0.023578
v -0.353951 0.093903 0.023578
v -0.353951 0.036540 -0.036388
v -0.353951 0.036540 0.036388
v -2.935271 -0.299397 -0.023578
v -2.962260 -0.174179 -0.023578
v -2.935271 -0.299397 0.023578
v -2.962260 -0.174179 0.023578
v -2.948765 -0.236788 -0.036388
v -2.948765 -0.236788 0.036388
v -2.255135 -0.171477 -0.023578
v -2.275103 -0.044949 -0.023578
v -2.255135 -0.171477 0.023578
v -2.275103 -0.044949 0.023578
v -2.265118 -0.108214 -0.036388
v -2.265118 -0.108214 0.036388
v -1.696685 -0.097032 -0.023578
v -1.710560 0.030307 -0.023578
v -1.696685 -0.097032 0.023578
v -1.710560 0.030307 0.023578
v -1.703622 -0.033363 -0.036388
v -1.703622 -0.033363 0.036388
v -1.096440 -0.047168 -0.023578
v -1.103767 0.080716 -0.023578
v -1.096440 -0.047168 0.023578
v -1.103767 0.080716 0.023578
v -1.100103 0.016774 -0.036388
v -1.100103 0.016774 0.036388
v -2.935271 -0.299397 -0.023578
v -2.962260 -0.174179 -0.023578
v -2.935271 -0.299397 0.023578
v -2.962260 -0.174179 0.023578
v -2.948765 -0.236788 -0.036388
v -2.948765 -0.236788 0.036388
v -2.762848 -0.227787 0.045594
v -2.771294 -0.182554 0.045594
v -2.358617 -0.105498 0.045594
v -2.350171 -0.150731 0.045594
v -2.548063 -0.234492 0.034177
v -2.573401 -0.098793 0.034177
v -2.762848 -0.227787 -0.045594
v -2.771294 -0.182554 -0.045594
v -2.358617 -0.105498 -0.045594
v -2.350171 -0.150731 -0.045594
v -2.548063 -0.234492 -0.034177
v -2.573401 -0.098793 -0.034177
v -0.327929 -0.032024 -0.022656
v -0.327929 0.094276 -0.022656
v 0.417403 -0.019592 -0.022656
v 0.417403 0.091806 -0.022656
v 0.417403 -0.019592 0.022656
v 0.417403 0.091806 0.022656
v -0.327929 -0.032024 0.022656
v -0.327929 0.094276 0.022656
v -0.353791 -0.032024 -0.022656
v -0.353791 0.094276 -0.022656
v -0.353791 -0.032024 0.022656
v -0.353791 0.094276 0.022656
v -0.385644 -0.013459 -0.004803
v -0.385644 0.081586 0.000000
v -0.385644 -0.013459 0.004803
v -0.385644 0.034064 -0.005663
v -0.385644 0.034064 0.005663
v -2.851191 -0.264270 -0.004803
v -2.837958 -0.164825 0.000000
v -2.851191 -0.264270 0.004803
v -2.813829 -0.205744 -0.005663
v -2.813829 -0.205744 0.005663
v -2.909562 -0.274844 0.000000
v -2.886162 -0.219340 0.000000
v -2.259263 -0.155276 -0.004803
v -2.270974 -0.061149 0.000000
v -2.259263 -0.155276 0.004803
v -2.265118 -0.108214 -0.005663
v -2.265118 -0.108214 0.005663
v -1.699554 -0.080664 -0.004803
v -1.707691 0.013939 0.000000
v -1.699554 -0.080664 0.004803
v -1.703622 -0.033363 -0.005663
v -1.703622 -0.033363 0.005663
v -1.097955 -0.030687 -0.004803
v -1.102252 0.064234 0.000000
v -1.097955 -0.030687 0.004803
v -1.100103 0.016774 -0.005663
v -1.100103 0.016774 0.005663
v 0.417403 0.036107 -0.035669
v -0.327929 0.036310 -0.035669
v 0.417403 0.036107 0.035669
v -0.327929 0.036310 0.035669
v -0.353791 0.036310 -0.035669
v -0.353791 0.036310 0.035669
v -0.340158 -0.021575 -0.010993
v -0.340158 0.087659 -0.007230
v -0.340158 -0.021575 0.010993
v -0.340158 0.087659 0.007230
v -0.424841 -0.022256 -0.010993
v -0.424841 0.086978 -0.007230
v -0.424841 -0.022256 0.010993
v -0.424841 0.086978 0.007230
v -0.340158 0.036107 -0.012959
v -0.340158 0.036107 0.012959
v -0.424841 0.035426 -0.012959
v -0.424841 0.035426 0.012959
v -0.327929 -0.032024 -0.022656
v -0.327929 0.094276 -0.022656
v 0.417403 -0.019592 -0.022656
v 0.417403 0.091806 -0.022656
v 0.417403 -0.019592 0.022656
v 0.417403 0.091806 0.022656
v -0.327929 -0.032024 0.022656
v -0.327929 0.094276 0.022656
v -0.353791 -0.032024 -0.022656
v -0.353791 0.094276 -0.022656
v -0.353791 -0.032024 0.022656
v -0.353791 0.094276 0.022656
v -0.385644 -0.013459 -0.004803
v -0.385644 0.081586 0.000000
v -0.385644 -0.013459 0.004803
v -0.385644 0.034064 -0.005663
v -0.385644 0.034064 0.005663
v -1.097955 -0.030687 -0.004803
v -1.102252 0.064234 0.000000
v -1.097955 -0.030687 0.004803
v -1.100103 0.016774 -0.005663
v -1.100103 0.016774 0.005663
v 0.417403 0.036107 -0.035669
v -0.327929 0.036310 -0.035669
v 0.417403 0.036107 0.035669
v -0.327929 0.036310 0.035669
v -0.353791 0.036310 -0.035669
v -0.353791 0.036310 0.035669
v -0.340158 -0.021575 -0.010993
v -0.340158 0.087659 -0.007230
v -0.340158 -0.021575 0.010993
v -0.340158 0.087659 0.007230
v -0.424841 -0.022256 -0.010993
v -0.424841 0.086978 -0.007230
v -0.424841 -0.022256 0.010993
v -0.424841 0.086978 0.007230
v -0.340158 0.036107 -0.012959
v -0.340158 0.036107 0.012959
v -0.424841 0.035426 -0.012959
v -0.424841 0.035426 0.012959
v -2.851191 -0.264270 -0.004803
v -2.837958 -0.164825 0.000000
v -2.851191 -0.264270 0.004803
v -2.813829 -0.205744 -0.005663
v -2.813829 -0.205744 0.005663
v -2.909562 -0.274844 0.000000
v -2.886162 -0.219340 0.000000
v -2.259263 -0.155276 -0.004803
v -2.270974 -0.061149 0.000000
v -2.259263 -0.155276 0.004803
v -2.265118 -0.108214 -0.005663
v -2.265118 -0.108214 0.005663
v -1.699554 -0.080664 -0.004803
v -1.707691 0.013939 0.000000
v -1.699554 -0.080664 0.004803
v -1.703622 -0.033363 -0.005663
v -1.703622 -0.033363 0.005663
v -1.097955 -0.030687 -0.004803
v -1.102252 0.064234 0.000000
v -1.097955 -0.030687 0.004803
v -1.100103 0.016774 -0.005663
v -1.100103 0.016774 0.005663
v -0.354514 -0.035807 -0.030029
v -0.354925 0.108021 -0.030029
v -0.354514 -0.035807 0.030029
v -0.354925 0.108021 0.030029
v -0.351430 0.036107 -0.046064
v -0.351430 0.036107 0.046064
v -2.939167 -0.313605 -0.032201
v -2.971227 -0.162743 -0.032201
v -2.939167 -0.313605 0.032201
v -2.971227 -0.162743 0.032201
v -2.958645 -0.238917 -0.049396
v -2.958645 -0.238917 0.049396
v -2.253265 -0.183129 -0.033255
v -2.276973 -0.033298 -0.033255
v -2.253265 -0.183129 0.033255
v -2.276973 -0.033298 0.033255
v -2.265118 -0.108214 -0.055741
v -2.265118 -0.108214 0.055741
v -1.695417 -0.108765 -0.033255
v -1.711829 0.042040 -0.033255
v -1.695417 -0.108765 0.033255
v -1.711829 0.042040 0.033255
v -1.703622 -0.033363 -0.055741
v -1.703622 -0.033363 0.055741
v -1.095797 -0.058950 -0.033255
v -1.104410 0.092498 -0.033255
v -1.095797 -0.058950 0.033255
v -1.104410 0.092498 0.033255
v -1.100103 0.016774 -0.055741
v -1.100103 0.016774 0.055741
v 0.000000 0.707107 0.000000
v 0.707107 0.000000 0.000000
v -0.707107 0.000000 0.000000
v 0.000000 -0.707106 0.000000
v 0.000000 0.556562 0.040000
v 0.556562 0.000000 0.040000
v -0.556561 0.000000 0.040000
v 0.000000 -0.556561 0.040000
v -0.478647 0.451183 0.124121
v -0.618765 0.354233 0.124121
v -0.738664 0.802395 0.124121
v -0.867281 0.713403 0.124121
v -0.738664 0.802395 0.187739
v -0.867281 0.713403 0.187739
v -0.478646 0.451183 0.187739
v -0.618765 0.354233 0.187739
v -0.470023 0.438720 0.124121
v -0.610142 0.341770 0.124121
v -0.470024 0.438720 0.187739
v -0.610142 0.341770 0.187739
v -0.477985 0.410513 0.149187
v -0.587722 0.334585 0.155930
v -0.477985 0.410513 0.162673
v -0.532854 0.372548 0.147979
v -0.532854 0.372548 0.163881
v 0.633679 -0.577253 0.149187
v 0.514451 -0.650319 0.155930
v 0.633680 -0.577253 0.162673
v 0.553649 -0.606002 0.147979
v 0.553649 -0.606002 0.163881
v 0.665350 -0.596934 0.155930
v 0.593465 -0.629998 0.155930
v 0.310472 -0.379078 0.149187
v 0.205701 -0.459916 0.155930
v 0.310472 -0.379078 0.162673
v 0.258088 -0.419496 0.147979
v 0.258088 -0.419496 0.163881
v 0.037704 -0.168963 0.149187
v -0.068809 -0.248460 0.155930
v 0.037704 -0.168963 0.162673
v -0.015552 -0.208710 0.147979
v -0.015552 -0.208711 0.163881
v -0.220589 0.081018 0.149187
v -0.328749 0.003119 0.155930
v -0.220589 0.081018 0.162673
v -0.274670 0.042068 0.147979
v -0.274670 0.042068 0.163881
v -0.802973 0.757899 0.105851
v -0.554457 0.398729 0.105851
v -0.802972 0.757899 0.206009
v -0.554457 0.398728 0.206009
v -0.545834 0.386266 0.105851
v -0.545834 0.386266 0.206009
v -0.483781 0.438916 0.140496
v -0.609900 0.351653 0.145779
v -0.483782 0.438916 0.171364
v -0.609900 0.351653 0.166081
v -0.454759 0.398652 0.140496
v -0.580877 0.311389 0.145779
v -0.454759 0.398652 0.171364
v -0.580878 0.311389 0.166081
v -0.550379 0.392836 0.137736
v -0.550379 0.392835 0.174124
v -0.521357 0.352571 0.137736
v -0.521357 0.352571 0.174124
v 0.460267 0.488649 0.114664
v 0.584415 0.409360 0.114664
v 0.460267 0.488649 0.060434
v 0.584415 0.409360 0.060434
v 0.522341 0.449004 0.129395
v 0.522341 0.449004 0.045703
v -0.595310 -0.584157 0.114664
v -0.482258 -0.674678 0.114664
v -0.595310 -0.584157 0.060434
v -0.482258 -0.674678 0.060434
v -0.538784 -0.629417 0.129395
v -0.538784 -0.629417 0.045703
v -0.261928 -0.335465 0.114664
v -0.145445 -0.423412 0.114664
v -0.261928 -0.335465 0.060434
v -0.145445 -0.423412 0.060434
v -0.203688 -0.379437 0.129395
v -0.203688 -0.379437 0.045703
v -0.017839 -0.112334 0.114664
v 0.101306 -0.197845 0.114664
v -0.017839 -0.112334 0.060434
v 0.101306 -0.197845 0.060434
v 0.041733 -0.155089 0.129395
v 0.041733 -0.155089 0.045703
v 0.215293 0.146161 0.114664
v 0.336983 0.063470 0.114664
v 0.215293 0.146161 0.060434
v 0.336983 0.063470 0.060434
v 0.276139 0.104815 0.129395
v 0.276139 0.104815 0.045703
v -0.595310 -0.584157 0.114664
v -0.482258 -0.674678 0.114664
v -0.595310 -0.584157 0.060434
v -0.482258 -0.674678 0.060434
v -0.538784 -0.629417 0.129395
v -0.538784 -0.629417 0.045703
v 0.000000 0.707107 0.000000
v 0.707107 0.000000 0.000000
v -0.707107 0.000000 0.000000
v 0.000000 -0.707106 0.000000
v 0.000000 0.556562 -0.040000
v 0.556562 0.000000 -0.040000
v -0.556561 0.000000 -0.040000
v 0.000000 -0.556561 -0.040000
v -0.112764 -0.287653 0.131825
v 0.010408 -0.436259 0.131825
v -0.579429 -0.695029 0.131825
v -0.466367 -0.831436 0.131825
v -0.579429 -0.695029 0.185788
v -0.466367 -0.831436 0.185788
v -0.112764 -0.287653 0.185788
v 0.010409 -0.436259 0.185788
v -0.096221 -0.273941 0.131825
v 0.026952 -0.422547 0.131825
v -0.096221 -0.273941 0.185788
v 0.026952 -0.422547 0.185788
v -0.059510 -0.276761 0.153086
v 0.036955 -0.393144 0.158806
v -0.059509 -0.276761 0.164527
v -0.011276 -0.334953 0.152062
v -0.011277 -0.334953 0.165551
v 0.378658 0.122004 0.153086
v 0.477745 0.008051 0.158806
v 0.378658 0.122004 0.164527
v 0.428202 0.065027 0.152062
v 0.428202 0.065026 0.165551
v -0.522898 -0.763233 0.116327
v -0.046123 -0.368056 0.116327
v -0.522898 -0.763232 0.201286
v -0.046122 -0.368056 0.201286
v -0.029579 -0.354343 0.116327
v -0.029579 -0.354344 0.201286
v -0.096843 -0.290940 0.145715
v 0.014022 -0.424697 0.150196
v -0.096843 -0.290940 0.171898
v 0.014022 -0.424697 0.167417
v -0.043364 -0.245206 0.145715
v 0.067500 -0.378964 0.150196
v -0.043364 -0.245207 0.171898
v 0.067501 -0.378964 0.167417
v -0.038300 -0.361572 0.143373
v -0.038300 -0.361572 0.174240
v 0.015180 -0.315839 0.143373
v 0.015180 -0.315839 0.174240
v -0.474851 0.740015 0.153086
v -0.331276 0.807263 0.158806
v -0.474851 0.740014 0.164527
v -0.378412 0.758116 0.152062
v -0.378412 0.758116 0.165551
v -0.513116 0.774228 0.158806
v -0.426517 0.800134 0.158806
v -0.084358 0.394421 0.153086
v 0.041752 0.475673 0.158806
v -0.084358 0.394421 0.164527
v -0.021304 0.435045 0.152062
v -0.021305 0.435046 0.165551
v 0.127899 0.169882 0.164527
v 0.202304 0.198499 0.152062
v 0.127899 0.169882 0.153086
v 0.202304 0.198499 0.165551
v 0.276711 0.227117 0.158806
v -0.550028 -0.041315 0.153086
v -0.419821 0.035166 0.158806
v -0.550029 -0.041314 0.164527
v -0.484925 -0.003073 0.152062
v -0.484924 -0.003075 0.165551
v -0.628182 0.058323 0.153086
v -0.497811 0.134595 0.158806
v -0.562997 0.096459 0.165551
v -0.562996 0.096459 0.152062
v -0.628182 0.058323 0.164527
v 0.190328 0.524808 0.153086
v 0.315378 0.440868 0.158806
v 0.190328 0.524808 0.164527
v 0.252853 0.482837 0.152062
v 0.252853 0.482837 0.165551
v 0.254724 0.683165 0.164527
v 0.311602 0.627309 0.152062
v 0.254725 0.683165 0.153086
v 0.311602 0.627309 0.165551
v 0.368481 0.571451 0.158806
v -0.291540 0.031178 0.153086
v -0.154099 -0.030413 0.158806
v -0.291540 0.031177 0.164527
v -0.222819 0.000382 0.152062
v -0.222820 0.000381 0.165551
v -0.326073 -0.077188 0.164527
v -0.248501 -0.080207 0.152062
v -0.326073 -0.077188 0.153086
v -0.248502 -0.080208 0.165551
v -0.170929 -0.083228 0.158806
v -0.398348 0.344694 0.153086
v -0.260435 0.411352 0.158806
v -0.329392 0.378023 0.165551
v -0.329391 0.378023 0.152062
v -0.398348 0.344694 0.164527
v -0.307766 0.229212 0.153086
v -0.177395 0.305483 0.158806
v -0.242581 0.267347 0.165551
v -0.242580 0.267348 0.152062
v -0.307766 0.229211 0.164527
v 0.659209 0.208664 0.164527
v 0.598330 0.160495 0.152062
v 0.659208 0.208664 0.153086
v 0.598331 0.160495 0.165551
v 0.537451 0.112323 0.158806
v 0.612893 0.318263 0.153086
v 0.462328 0.290101 0.158806
v 0.537611 0.304181 0.165551
v 0.537611 0.304181 0.152062
v 0.612894 0.318262 0.164527
v 0.000000 0.707107 0.000000
v -0.707107 0.000000 0.000000
v 0.707107 0.000000 0.000000
v 0.000000 -0.707106 0.000000
v 0.000000 0.556562 -0.040000
v -0.556562 0.000000 -0.040000
v 0.556561 0.000000 -0.040000
v 0.000000 -0.556561 -0.040000
v 0.000000 0.707107 0.000000
v -0.707107 0.000000 0.000000
v 0.707107 0.000000 0.000000
v 0.000000 -0.707106 0.000000
v 0.000000 0.556562 0.040000
v -0.556562 0.000000 0.040000
v 0.556561 0.000000 0.040000
v 0.000000 -0.556561 0.040000
v -0.478647 0.451183 0.124121
v -0.618765 0.354233 0.124121
v -0.738664 0.802395 0.124121
v -0.867281 0.713403 0.124121
v -0.738664 0.802395 0.187739
v -0.867281 0.713403 0.187739
v -0.478646 0.451183 0.187739
v -0.618765 0.354233 0.187739
v -0.470023 0.438720 0.124121
v -0.610142 0.341770 0.124121
v -0.470024 0.438720 0.187739
v -0.610142 0.341770 0.187739
v -0.477985 0.410513 0.149187
v -0.587722 0.334585 0.155930
v -0.477985 0.410513 0.162673
v -0.532854 0.372548 0.147979
v -0.532854 0.372548 0.163881
v 0.633679 -0.577253 0.149187
v 0.514451 -0.650319 0.155930
v 0.633680 -0.577253 0.162673
v 0.553649 -0.606002 0.147979
v 0.553649 -0.606002 0.163881
v 0.665350 -0.596934 0.155930
v 0.593465 -0.629998 0.155930
v 0.310472 -0.379078 0.149187
v 0.205701 -0.459916 0.155930
v 0.310472 -0.379078 0.162673
v 0.258088 -0.419496 0.147979
v 0.258088 -0.419496 0.163881
v 0.037704 -0.168963 0.149187
v -0.068809 -0.248460 0.155930
v 0.037704 -0.168963 0.162673
v -0.015552 -0.208710 0.147979
v -0.015552 -0.208711 0.163881
v -0.220589 0.081018 0.149187
v -0.328749 0.003119 0.155930
v -0.220589 0.081018 0.162673
v -0.274670 0.042068 0.147979
v -0.274670 0.042068 0.163881
v -0.802973 0.757899 0.105851
v -0.554457 0.398729 0.105851
v -0.802972 0.757899 0.206009
v -0.554457 0.398728 0.206009
v -0.545834 0.386266 0.105851
v -0.545834 0.386266 0.206009
v -0.483781 0.438916 0.140496
v -0.609900 0.351653 0.145779
v -0.483782 0.438916 0.171364
v -0.609900 0.351653 0.166081
v -0.454759 0.398652 0.140496
v -0.580877 0.311389 0.145779
v -0.454759 0.398652 0.171364
v -0.580878 0.311389 0.166081
v -0.550379 0.392836 0.137736
v -0.550379 0.392835 0.174124
v -0.521357 0.352571 0.137736
v -0.521357 0.352571 0.174124
v 0.000000 0.707107 0.000000
v 0.707107 0.000000 0.000000
v -0.707107 0.000000 0.000000
v 0.000000 -0.707106 0.000000
v 0.000000 0.556562 0.040000
v 0.556562 0.000000 0.040000
v -0.556561 0.000000 0.040000
v 0.000000 -0.556561 0.040000
v 0.000000 0.707107 0.000000
v 0.707107 0.000000 0.000000
v -0.707107 0.000000 0.000000
v 0.000000 -0.707106 0.000000
v 0.000000 0.556562 -0.040000
v 0.556562 0.000000 -0.040000
v -0.556561 0.000000 -0.040000
v 0.000000 -0.556561 -0.040000
v 0.000000 0.707107 0.000000
v 0.707107 0.000000 0.000000
v -0.707107 0.000000 0.000000
v 0.000000 -0.707106 0.000000
v 0.000000 0.556562 0.040000
v 0.556562 0.000000 0.040000
v -0.556561 0.000000 0.040000
v 0.000000 -0.556561 0.040000
v -0.478647 0.451183 0.124121
v -0.618765 0.354233 0.124121
v -0.738664 0.802395 0.124121
v -0.867281 0.713403 0.124121
v -0.738664 0.802395 0.187739
v -0.867281 0.713403 0.187739
v -0.478646 0.451183 0.187739
v -0.618765 0.354233 0.187739
v -0.470023 0.438720 0.124121
v -0.610142 0.341770 0.124121
v -0.470024 0.438720 0.187739
v -0.610142 0.341770 0.187739
v -0.477985 0.410513 0.149187
v -0.587722 0.334585 0.155930
v -0.477985 0.410513 0.162673
v -0.532854 0.372548 0.147979
v -0.532854 0.372548 0.163881
v 0.633679 -0.577253 0.149187
v 0.514451 -0.650319 0.155930
v 0.633680 -0.577253 0.162673
v 0.553649 -0.606002 0.147979
v 0.553649 -0.606002 0.163881
v 0.665350 -0.596934 0.155930
v 0.593465 -0.629998 0.155930
v 0.310472 -0.379078 0.149187
v 0.205701 -0.459916 0.155930
v 0.310472 -0.379078 0.162673
v 0.258088 -0.419496 0.147979
v 0.258088 -0.419496 0.163881
v 0.037704 -0.168963 0.149187
v -0.068809 -0.248460 0.155930
v 0.037704 -0.168963 0.162673
v -0.015552 -0.208710 0.147979
v -0.015552 -0.208711 0.163881
v -0.220589 0.081018 0.149187
v -0.328749 0.003119 0.155930
v -0.220589 0.081018 0.162673
v -0.274670 0.042068 0.147979
v -0.274670 0.042068 0.163881
v -0.802973 0.757899 0.105851
v -0.554457 0.398729 0.105851
v -0.802972 0.757899 0.206009
v -0.554457 0.398728 0.206009
v -0.545834 0.386266 0.105851
v -0.545834 0.386266 0.206009
v -0.483781 0.438916 0.140496
v -0.609900 0.351653 0.145779
v -0.483782 0.438916 0.171364
v -0.609900 0.351653 0.166081
v -0.454759 0.398652 0.140496
v -0.580877 0.311389 0.145779
v -0.454759 0.398652 0.171364
v -0.580878 0.311389 0.166081
v -0.550379 0.392836 0.137736
v -0.550379 0.392835 0.174124
v -0.521357 0.352571 0.137736
v -0.521357 0.352571 0.174124
v 0.460267 0.488649 0.114664
v 0.584415 0.409360 0.114664
v 0.460267 0.488649 0.060434
v 0.584415 0.409360 0.060434
v 0.522341 0.449004 0.129395
v 0.522341 0.449004 0.045703
v -0.595310 -0.584157 0.114664
v -0.482258 -0.674678 0.114664
v -0.595310 -0.584157 0.060434
v -0.482258 -0.674678 0.060434
v -0.538784 -0.629417 0.129395
v -0.538784 -0.629417 0.045703
v -0.261928 -0.335465 0.114664
v -0.145445 -0.423412 0.114664
v -0.261928 -0.335465 0.060434
v -0.145445 -0.423412 0.060434
v -0.203688 -0.379437 0.129395
v -0.203688 -0.379437 0.045703
v -0.017839 -0.112334 0.114664
v 0.101306 -0.197845 0.114664
v -0.017839 -0.112334 0.060434
v 0.101306 -0.197845 0.060434
v 0.041733 -0.155089 0.129395
v 0.041733 -0.155089 0.045703
v 0.215293 0.146161 0.114664
v 0.336983 0.063470 0.114664
v 0.215293 0.146161 0.060434
v 0.336983 0.063470 0.060434
v 0.276139 0.104815 0.129395
v 0.276139 0.104815 0.045703
v -0.595310 -0.584157 0.114664
v -0.482258 -0.674678 0.114664
v -0.595310 -0.584157 0.060434
v -0.482258 -0.674678 0.060434
v -0.538784 -0.629417 0.129395
v -0.538784 -0.629417 0.045703
v 0.000000 0.707107 0.000000
v 0.707107 0.000000 0.000000
v -0.707107 0.000000 0.000000
v 0.000000 -0.707106 0.000000
v 0.000000 0.556562 -0.040000
v 0.556562 0.000000 -0.040000
v -0.556561 0.000000 -0.040000
v 0.000000 -0.556561 -0.040000
v -0.459964 -0.607915 0.142629
v -0.489030 -0.572243 0.142629
v -0.163582 -0.307058 0.142629
v -0.134516 -0.342730 0.142629
v -0.268173 -0.510995 0.131212
v -0.355373 -0.403978 0.131212
v -0.459964 -0.607915 0.142629
v -0.489030 -0.572243 0.142629
v -0.163582 -0.307058 0.142629
v -0.134516 -0.342730 0.142629
v -0.268173 -0.510995 0.131212
v -0.355373 -0.403978 0.131212
# 623 vertices

vt 0.49348 0.14277
vt 0.00829 0.14277
vt 0.00829 0.10263
vt 0.49348 0.10263
vt 0.49348 0.18518
vt 0.00829 0.18518
vt 0.65885 0.33594
vt 0.59896 0.33594
vt 0.65885 0.99219
vt 0.71875 0.66406
vt 0.59896 0.99219
vt 0.53906 0.66406
vt 0.06586 0.49451
vt 0.10357 0.49451
vt 0.02527 0.37170
vt 0.02816 0.37323
vt 0.01560 0.46419
vt 0.01560 0.37323
vt 0.00921 0.10274
vt 0.07106 0.10274
vt 0.00921 0.18611
vt 0.07106 0.18611
vt 0.16150 0.72656
vt 0.16150 0.68198
vt 0.09360 0.68198
vt 0.09360 0.72656
vt 0.40726 0.72656
vt 0.40726 0.68198
vt 0.33832 0.68198
vt 0.33832 0.72656
vt 0.17897 0.25194
vt 0.17897 0.37323
vt 0.02816 0.25194
vt 0.17897 0.49451
vt 0.26694 0.37323
vt 0.26694 0.25194
vt 0.26694 0.49451
vt 0.49315 0.25194
vt 0.49315 0.37323
vt 0.36748 0.37323
vt 0.36748 0.25194
vt 0.49315 0.49451
vt 0.36748 0.49451
vt 0.00921 0.14443
vt 0.07106 0.14443
vt 0.00944 0.87063
vt 0.13334 0.87063
vt 0.11074 0.99097
vt 0.03204 0.99097
vt 0.03204 0.75030
vt 0.11074 0.75030
vt 0.48951 0.72656
vt 0.48951 0.68198
vt 0.00758 0.68198
vt 0.00758 0.72656
vt 0.24945 0.72656
vt 0.24945 0.68198
vt 0.44510 0.89023
vt 0.42947 0.89023
vt 0.42970 0.89243
vt 0.44536 0.89243
vt 0.44516 0.90365
vt 0.42963 0.90366
vt 0.42948 0.90220
vt 0.44499 0.90220
vt 0.44531 0.89844
vt 0.42970 0.89844
vt 0.44500 0.89584
vt 0.42944 0.89584
vt 0.01544 0.59315
vt 0.48941 0.59315
vt 0.01544 0.51598
vt 0.48941 0.51598
vt 0.01544 0.55456
vt 0.48941 0.55456
vt 0.32400 0.31757
vt 0.32400 0.07736
vt 0.15793 0.07736
vt 0.15793 0.31757
vt 0.78501 0.31757
vt 0.95036 0.31757
vt 0.95036 0.07736
vt 0.78501 0.07736
vt 0.03624 0.07736
vt 0.03627 0.31757
vt 0.49011 0.31757
vt 0.49011 0.07736
vt 0.61911 0.31757
vt 0.61911 0.07736
vt 0.32400 0.51553
vt 0.15793 0.51553
vt 0.95036 0.51553
vt 0.78501 0.51553
vt 0.03630 0.51553
vt 0.49011 0.51553
vt 0.61911 0.51553
vt 0.32400 0.72675
vt 0.15793 0.72675
vt 0.95036 0.72675
vt 0.78501 0.72675
vt 0.03632 0.72675
vt 0.49011 0.72675
vt 0.61911 0.72675
vt 0.24717 0.03347
vt 0.24717 0.05904
vt 0.41312 0.05454
vt 0.41312 0.03797
vt 0.08122 0.03797
vt 0.08122 0.05454
vt 0.78501 0.98619
vt 0.95036 0.98619
vt 0.03635 0.98619
vt 0.15793 0.98619
vt 0.61911 0.98619
vt 0.49011 0.98619
vt 0.32400 0.98619
vt 0.72453 0.05854
vt 0.72453 0.03297
vt 0.55477 0.03747
vt 0.55477 0.05404
vt 0.89429 0.05404
vt 0.89429 0.03747
vt 0.06273 0.48950
vt 0.10023 0.48950
vt 0.02236 0.37190
vt 0.02523 0.37337
vt 0.01273 0.46046
vt 0.01273 0.37337
vt 0.01080 0.61246
vt 0.49485 0.61246
vt 0.01080 0.51065
vt 0.49485 0.51065
vt 0.17760 0.71094
vt 0.17760 0.67522
vt 0.15625 0.67522
vt 0.15625 0.71094
vt 0.25489 0.71094
vt 0.25489 0.67522
vt 0.23321 0.67522
vt 0.23321 0.71094
vt 0.17523 0.25724
vt 0.17523 0.37337
vt 0.02523 0.25724
vt 0.17523 0.48950
vt 0.26273 0.37337
vt 0.26273 0.25724
vt 0.26273 0.48950
vt 0.48773 0.25724
vt 0.48773 0.37337
vt 0.36273 0.37337
vt 0.36273 0.25724
vt 0.48773 0.48950
vt 0.36273 0.48950
vt 0.01080 0.56155
vt 0.49485 0.56155
vt 0.00965 0.87389
vt 0.13550 0.87389
vt 0.11254 0.99210
vt 0.03260 0.99210
vt 0.03260 0.75569
vt 0.11254 0.75569
vt 0.28076 0.71094
vt 0.28076 0.67522
vt 0.12920 0.67522
vt 0.12920 0.71094
vt 0.20526 0.71094
vt 0.20526 0.67522
vt 0.41384 0.93530
vt 0.39821 0.93530
vt 0.39844 0.93750
vt 0.41410 0.93750
vt 0.41390 0.94872
vt 0.39837 0.94873
vt 0.39822 0.94727
vt 0.41373 0.94727
vt 0.41405 0.94351
vt 0.39844 0.94351
vt 0.41374 0.94091
vt 0.39818 0.94091
vt 0.48702 0.14486
vt 0.00989 0.14486
vt 0.00989 0.10558
vt 0.48702 0.10558
vt 0.48702 0.18635
vt 0.00989 0.18635
vt 0.48269 0.92356
vt 0.47910 0.92715
vt 0.48986 0.92715
vt 0.48628 0.92356
vt 0.48986 0.91639
vt 0.48628 0.91997
vt 0.47910 0.91639
vt 0.48269 0.91997
vt 0.78152 0.15598
vt 0.66406 0.03853
vt 0.54661 0.15598
vt 0.66406 0.27344
vt 0.48995 0.91194
vt 0.47906 0.91194
vt 0.48269 0.90838
vt 0.48632 0.90838
vt 0.48995 0.90125
vt 0.48632 0.90482
vt 0.47906 0.90125
vt 0.48269 0.90482
vt 0.92193 0.29682
vt 0.80469 0.17957
vt 0.68744 0.29682
vt 0.80469 0.41406
vt 0.01047 0.62429
vt 0.49125 0.62429
vt 0.01047 0.53774
vt 0.49125 0.53774
vt 0.29295 0.73448
vt 0.29295 0.67131
vt 0.27275 0.67131
vt 0.27275 0.73448
vt 0.36606 0.73448
vt 0.36606 0.67131
vt 0.34555 0.67131
vt 0.34555 0.73448
vt 0.49421 0.25726
vt 0.49421 0.37500
vt 0.36642 0.37500
vt 0.36642 0.25726
vt 0.49421 0.49274
vt 0.36642 0.49274
vt 0.01047 0.58102
vt 0.49125 0.58102
vt 0.00073 0.87385
vt 0.31447 0.87385
vt 0.25724 0.99634
vt 0.05796 0.99634
vt 0.05796 0.75137
vt 0.25724 0.75137
vt 0.39053 0.73448
vt 0.39053 0.67131
vt 0.24716 0.67131
vt 0.24716 0.73448
vt 0.31911 0.73448
vt 0.31911 0.67131
vt 0.41384 0.92749
vt 0.39821 0.92749
vt 0.39844 0.92969
vt 0.41410 0.92969
vt 0.41390 0.94091
vt 0.39837 0.94092
vt 0.39822 0.93946
vt 0.41373 0.93946
vt 0.41405 0.93570
vt 0.39844 0.93570
vt 0.41374 0.93310
vt 0.39818 0.93310
vt 0.05974 0.49274
vt 0.09807 0.49274
vt 0.01846 0.37352
vt 0.02140 0.37500
vt 0.00862 0.46331
vt 0.00862 0.37500
vt 0.17474 0.25726
vt 0.17474 0.37500
vt 0.02140 0.25726
vt 0.17474 0.49274
vt 0.28716 0.25726
vt 0.26419 0.25726
vt 0.26419 0.37500
vt 0.28122 0.37500
vt 0.27532 0.49274
vt 0.26419 0.49274
vt 0.34095 0.37500
vt 0.34084 0.25726
vt 0.34106 0.49274
vt 0.23522 0.37500
vt 0.23233 0.25726
vt 0.23808 0.49274
vt 0.31263 0.37500
vt 0.31406 0.49274
vt 0.31120 0.25726
# 278 texture vertices

vn 0.02088 -0.99978 0.00000
vn -0.01758 0.99985 0.00000
vn 0.00449 -0.19041 0.98170
vn -0.00461 0.20711 0.97831
vn 0.00111 -0.05530 -0.99847
vn -0.00045 0.01702 0.99986
vn 0.03626 -0.19282 -0.98056
vn -0.03626 0.19281 -0.98057
vn 0.03626 -0.19281 0.98057
vn -0.18482 0.98277 0.00000
vn -0.01230 0.06540 -0.99778
vn 0.01230 -0.06541 0.99778
vn 0.16732 -0.98590 0.00000
vn -0.03282 0.19337 -0.98058
vn 0.03282 -0.19337 0.98058
vn -0.16731 0.98590 0.00000
vn 0.00176 0.00028 -1.00000
vn -0.00176 -0.00028 1.00000
vn 0.01947 -0.19517 -0.98058
vn -0.02270 0.19481 -0.98058
vn 0.02270 -0.19482 0.98058
vn -0.11572 0.99328 0.00000
vn 0.00165 0.00018 -1.00000
vn -0.00165 -0.00018 1.00000
vn 0.00843 -0.19209 -0.98134
vn -0.01198 0.19576 -0.98058
vn 0.01219 -0.19575 0.98058
vn -0.05021 0.99874 0.00000
vn 0.00208 0.00383 -0.99999
vn -0.00240 0.03334 0.99944
vn -0.97755 -0.21069 0.00000
vn -0.97755 -0.21071 0.00000
vn -0.97755 -0.21069 0.00000
vn -0.97755 -0.21071 0.00000
vn -0.97755 -0.21070 0.00000
vn -0.97755 -0.21070 0.00000
vn 0.02227 -0.11924 0.99262
vn -0.01483 0.07943 0.99673
vn -0.02227 0.11924 0.99262
vn 0.01483 -0.07943 0.99673
vn 0.04420 -0.23672 0.97057
vn -0.04420 0.23672 0.97057
vn 0.02227 -0.11924 -0.99262
vn -0.01483 0.07943 -0.99673
vn -0.02227 0.11924 -0.99262
vn 0.01483 -0.07943 -0.99673
vn 0.04420 -0.23672 -0.97057
vn -0.04420 0.23672 -0.97057
vn 0.00834 -0.99997 0.00000
vn 0.00166 1.00000 0.00000
vn 0.01668 -0.99986 0.00000
vn 0.00331 0.99999 0.00000
vn 0.00331 0.99999 0.00000
vn 0.00000 -1.00000 0.00000
vn 0.00000 1.00000 0.00000
vn 0.00044 -0.01810 -0.99984
vn -0.00286 0.11834 0.99297
vn 0.00044 -0.01809 0.99984
vn -0.00177 0.07301 -0.99733
vn -0.00066 0.02744 0.99962
vn 0.17967 -0.98373 0.00000
vn -0.05796 0.10324 0.99297
vn 0.18014 -0.98364 0.00000
vn -0.03606 0.05490 -0.99784
vn -0.03606 0.05490 0.99784
vn 0.17825 -0.98399 0.00000
vn -0.08912 0.05324 0.99460
vn 0.00276 -0.01762 -0.99984
vn -0.01869 0.11897 0.99272
vn 0.00288 -0.01750 0.99984
vn -0.00933 0.06336 -0.99795
vn -0.00571 0.03620 0.99933
vn 0.00180 -0.01802 -0.99984
vn -0.01176 0.11787 0.99296
vn 0.00210 -0.01800 0.99984
vn -0.00484 0.05005 -0.99873
vn -0.00597 0.04995 0.99873
vn 0.00097 -0.01807 -0.99984
vn -0.00634 0.11820 0.99297
vn 0.00097 -0.01807 0.99984
vn -0.00147 0.02741 -0.99962
vn -0.00391 0.07292 0.99733
vn 0.00000 -0.00000 -1.00000
vn 0.00056 -0.01798 -0.99984
vn 1.00000 0.00000 0.00000
vn 0.00053 0.00946 0.99996
vn 0.00000 0.08525 -0.99636
vn 0.00000 -0.05267 0.99861
vn 0.00804 -0.99997 0.00000
vn -0.00804 0.99997 0.00000
vn -0.00011 0.01414 -0.99990
vn -0.00050 0.06242 0.99805
vn -0.00050 0.06242 -0.99805
vn -0.00011 0.01414 0.99990
vn 0.00044 -0.01810 -0.99984
vn -0.00287 0.11835 0.99297
vn 0.00044 -0.01810 0.99984
vn -0.00066 0.02744 -0.99962
vn -0.00177 0.07301 0.99733
vn 0.00150 -0.01805 -0.99984
vn -0.00981 0.11804 0.99296
vn 0.00150 -0.01805 0.99984
vn -0.00227 0.02737 -0.99962
vn -0.00605 0.07283 0.99733
vn 0.03120 -0.99951 0.00000
vn -0.02071 0.99979 0.00000
vn 0.01565 -0.25129 0.96778
vn 0.00261 0.25141 0.96788
vn 0.01293 -0.00020 -0.99992
vn 0.01293 -0.00020 0.99992
vn 0.04180 -0.24811 -0.96783
vn -0.05126 0.24591 -0.96794
vn 0.04180 -0.24811 0.96783
vn -0.18329 0.98306 0.00000
vn -0.00875 -0.00211 -0.99996
vn -0.00875 -0.00211 0.99996
vn 0.04228 -0.28108 -0.95875
vn -0.04555 0.28056 -0.95875
vn 0.04464 -0.28071 0.95875
vn -0.16629 0.98608 0.00000
vn -0.00836 0.04109 -0.99912
vn 0.00277 -0.04240 0.99910
vn 0.02822 -0.28285 -0.95875
vn -0.03289 0.28233 -0.95875
vn 0.03289 -0.28234 0.95875
vn -0.11572 0.99328 0.00000
vn 0.00244 0.00026 -1.00000
vn -0.00244 -0.00027 1.00000
vn 0.01829 -0.28366 -0.95875
vn -0.01628 0.28377 -0.95875
vn 0.02004 -0.28355 0.95875
vn -0.05177 0.99866 0.00000
vn 0.00889 -0.04194 -0.99908
vn 0.00192 0.04200 0.99912
vn -0.08528 0.25586 0.96295
vn 0.25586 0.08529 0.96295
vn -0.25585 -0.08529 0.96295
vn 0.08529 -0.25586 0.96295
vn 0.06396 0.19188 0.97933
vn 0.15315 -0.05105 0.98688
vn -0.15315 0.05105 0.98688
vn -0.06396 -0.19188 0.97933
vn 0.81314 0.58207 -0.00000
vn -0.82235 -0.56898 0.00000
vn 0.80371 0.59502 0.00000
vn -0.82234 -0.56899 0.00000
vn 0.80371 0.59502 -0.00001
vn 0.81315 0.58205 -0.00001
vn 0.82232 0.56902 0.00001
vn -0.82235 -0.56898 0.00000
vn 0.82235 0.56898 -0.00000
vn 0.01429 0.01116 -0.99984
vn -0.09341 -0.07298 0.99295
vn 0.01429 0.01116 0.99984
vn -0.05763 -0.04503 -0.99732
vn -0.02165 -0.01692 0.99962
vn 0.52527 0.85094 -0.00004
vn -0.00645 -0.17106 0.98524
vn 0.52442 0.85146 -0.00003
vn 0.00361 -0.10128 -0.99485
vn 0.00361 -0.10128 0.99485
vn 0.52782 0.84936 -0.00004
vn 0.07630 -0.20208 0.97639
vn 0.01073 0.01547 -0.99982
vn -0.07229 -0.10444 0.99190
vn 0.01047 0.01564 0.99982
vn -0.03936 -0.05440 -0.99774
vn -0.02197 -0.03181 0.99925
vn 0.01238 0.01380 -0.99983
vn -0.08087 -0.09021 0.99263
vn 0.01195 0.01438 0.99983
vn -0.03455 -0.03801 -0.99868
vn -0.03292 -0.04017 0.99865
vn 0.01355 0.01220 -0.99983
vn -0.08855 -0.07973 0.99288
vn 0.01355 0.01220 0.99983
vn -0.02053 -0.01848 -0.99962
vn -0.05463 -0.04919 0.99729
vn -0.00000 -0.00000 -1.00000
vn 0.01490 0.01141 -0.99982
vn -0.56899 0.82234 0.00000
vn -0.00990 -0.00556 0.99994
vn -0.07289 -0.05043 -0.99606
vn 0.04512 0.03121 0.99849
vn 0.81122 0.58474 0.00001
vn -0.81122 -0.58474 0.00000
vn 0.81122 0.58474 0.00003
vn -0.81122 -0.58474 -0.00002
vn 0.81123 0.58473 0.00000
vn -0.81123 -0.58473 -0.00004
vn -0.01147 -0.00827 -0.99990
vn -0.05065 -0.03651 0.99805
vn -0.05065 -0.03651 -0.99805
vn -0.01147 -0.00827 0.99990
vn -0.81335 0.58177 0.00000
vn 0.81332 -0.58181 0.00000
vn -0.15973 0.11426 -0.98053
vn 0.15973 -0.11426 -0.98052
vn -0.05418 0.03876 0.99778
vn 0.00000 -0.00000 -1.00000
vn -0.12301 0.16490 0.97861
vn 0.12301 -0.16489 0.97861
vn -0.12300 0.16489 -0.97861
vn 0.59795 -0.80153 0.00000
vn 0.04180 -0.05603 0.99755
vn -0.04180 0.05603 -0.99755
vn -0.13147 0.15394 0.97929
vn 0.12724 -0.15941 0.97898
vn -0.12725 0.15942 -0.97898
vn 0.62423 -0.78124 0.00000
vn 0.00216 0.00280 0.99999
vn -0.00216 -0.00280 -0.99999
vn -0.14333 0.13795 0.98001
vn 0.13951 -0.14319 0.97981
vn -0.13951 0.14320 -0.97981
vn 0.69806 -0.71604 0.00000
vn 0.00195 0.00268 0.99999
vn -0.00195 -0.00268 -0.99999
vn -0.15554 0.12041 0.98046
vn 0.15135 -0.12656 0.98034
vn -0.15135 0.12656 -0.98035
vn 0.77920 -0.62677 0.00000
vn 0.00214 0.00313 0.99999
vn 0.02143 -0.01933 -0.99958
vn -0.62503 -0.78060 0.00000
vn -0.62503 -0.78060 0.00000
vn -0.62503 -0.78060 0.00000
vn -0.62503 -0.78060 0.00000
vn -0.62503 -0.78060 0.00000
vn -0.62503 -0.78060 0.00000
vn -0.08528 0.25586 -0.96295
vn 0.25586 0.08529 -0.96295
vn -0.25585 -0.08529 -0.96295
vn 0.08529 -0.25586 -0.96295
vn 0.06396 0.19188 -0.97933
vn 0.15315 -0.05105 -0.98688
vn -0.15315 0.05105 -0.98688
vn -0.06396 -0.19188 -0.97933
vn -0.64795 0.76169 0.00000
vn 0.63814 -0.76992 -0.00001
vn -0.65763 0.75334 0.00000
vn 0.63815 -0.76991 -0.00001
vn 0.63815 -0.76992 0.00000
vn 0.63814 -0.76992 -0.00001
vn -0.63815 0.76991 0.00000
vn 0.63814 -0.76992 -0.00001
vn 0.63815 -0.76991 0.00000
vn -0.00913 0.01003 -0.99991
vn 0.05990 -0.06581 0.99603
vn -0.00913 0.01003 0.99991
vn 0.03693 -0.04057 -0.99849
vn 0.01389 -0.01527 0.99979
vn -0.00913 0.01003 -0.99991
vn 0.05991 -0.06582 0.99603
vn -0.00913 0.01003 0.99991
vn 0.01390 -0.01527 -0.99979
vn 0.03693 -0.04058 0.99849
vn 0.00000 -0.00000 -1.00000
vn -0.00926 0.01032 -0.99990
vn -0.76991 -0.63815 0.00001
vn 0.00502 -0.00705 0.99996
vn 0.04257 -0.05136 -0.99777
vn -0.02609 0.03148 0.99916
vn -0.64993 0.76000 0.00001
vn 0.64993 -0.76000 0.00000
vn -0.64992 0.76000 0.00000
vn 0.64992 -0.76000 -0.00002
vn -0.64993 0.75999 0.00003
vn 0.64992 -0.76000 -0.00004
vn 0.00692 -0.00809 -0.99994
vn 0.03045 -0.03560 0.99890
vn 0.03045 -0.03560 -0.99890
vn 0.00692 -0.00809 0.99994
vn -0.66464 -0.74716 -0.00006
vn 0.02733 0.11014 0.99354
vn -0.66401 -0.74772 -0.00004
vn 0.01090 0.06507 -0.99782
vn 0.01091 0.06508 0.99782
vn -0.66654 -0.74547 -0.00006
vn -0.02713 0.13057 0.99107
vn -0.00961 -0.00987 -0.99991
vn 0.06504 0.06691 0.99564
vn -0.00945 -0.00997 0.99991
vn 0.03505 0.03482 -0.99878
vn 0.01977 0.02038 0.99960
vn -0.01009 -0.00954 0.99990
vn 0.01536 0.01452 -0.99978
vn -0.01009 -0.00954 -0.99990
vn 0.04082 0.03859 0.99842
vn 0.06620 0.06258 0.99584
vn -0.01077 -0.00845 -0.99991
vn 0.07064 0.05541 0.99596
vn -0.01077 -0.00845 0.99991
vn 0.01639 0.01285 -0.99978
vn 0.04356 0.03416 0.99847
vn -0.01077 -0.00845 -0.99991
vn 0.07064 0.05541 0.99596
vn 0.01639 0.01285 0.99978
vn 0.04355 0.03416 -0.99847
vn -0.01077 -0.00845 0.99991
vn -0.01286 0.00523 -0.99990
vn 0.08439 -0.03432 0.99584
vn -0.01286 0.00523 0.99990
vn 0.01957 -0.00796 -0.99978
vn 0.05204 -0.02116 0.99842
vn -0.01286 0.00523 0.99990
vn 0.05203 -0.02116 -0.99842
vn -0.01286 0.00523 -0.99990
vn 0.01958 -0.00796 0.99978
vn 0.08439 -0.03432 0.99584
vn -0.01304 0.00415 -0.99991
vn 0.08553 -0.02725 -0.99596
vn -0.01304 0.00415 0.99991
vn 0.05274 -0.01680 -0.99847
vn 0.01984 -0.00632 0.99978
vn -0.01304 0.00415 0.99991
vn 0.01984 -0.00632 -0.99978
vn -0.01304 0.00415 -0.99991
vn 0.05274 -0.01681 0.99847
vn 0.08553 -0.02725 -0.99596
vn -0.01077 -0.00845 -0.99991
vn 0.07064 0.05541 0.99596
vn 0.04356 0.03416 0.99847
vn 0.01638 0.01285 -0.99978
vn -0.01077 -0.00845 0.99991
vn -0.01077 -0.00845 -0.99991
vn 0.07064 0.05541 0.99596
vn 0.01639 0.01285 0.99978
vn 0.04355 0.03416 -0.99847
vn -0.01077 -0.00845 0.99991
vn 0.01260 0.00533 0.99991
vn -0.01918 -0.00811 -0.99978
vn 0.01260 0.00533 -0.99991
vn -0.06369 -0.02691 0.99761
vn -0.08268 -0.03494 -0.99596
vn 0.01260 0.00533 -0.99991
vn -0.08269 -0.03494 -0.99596
vn -0.03509 -0.01483 0.99927
vn -0.05098 -0.02154 -0.99847
vn 0.01260 0.00533 0.99991
vn 0.08528 0.25586 -0.96295
vn -0.25586 0.08529 -0.96295
vn 0.25585 -0.08529 -0.96295
vn -0.08529 -0.25586 -0.96295
vn -0.06396 0.19188 -0.97933
vn -0.15315 -0.05105 -0.98688
vn 0.15315 0.05105 -0.98688
vn 0.06396 -0.19188 -0.97933
vn 0.08528 0.25586 0.96295
vn -0.25586 0.08529 0.96295
vn 0.25585 -0.08529 0.96295
vn -0.08529 -0.25586 0.96295
vn -0.06396 0.19188 0.97933
vn -0.15315 -0.05105 0.98688
vn 0.15315 0.05105 0.98688
vn 0.06396 -0.19188 0.97933
vn 0.07662 -0.09404 0.99262
vn -0.05104 0.06264 0.99673
vn -0.07662 0.09404 0.99262
vn 0.05104 -0.06264 0.99673
vn 0.15212 -0.18668 0.97057
vn -0.15212 0.18668 0.97057
vn 0.18484 -0.98277 0.00000
vn 0.18484 -0.98277 0.00000
vn 0.14975 -0.98872 0.00000
vn -0.18482 0.98277 0.00000
vn -0.14975 0.98872 0.00000
vn -0.03626 0.19282 0.98056
vn -0.02937 0.19391 0.98058
vn 0.02937 -0.19392 -0.98058
vn 0.11572 -0.99328 0.00000
vn 0.09926 -0.99506 0.00000
vn -0.09927 0.99506 0.00000
vn -0.01947 0.19516 0.98058
vn 0.06218 -0.99807 0.00000
vn 0.04153 -0.99914 0.00000
vn -0.05021 0.99874 0.00000
vn -0.00985 0.19588 0.98058
vn -0.00461 0.20711 -0.97831
vn 0.00386 -0.18460 -0.98281
vn -0.08912 0.05324 -0.99460
vn -0.05796 0.10324 -0.99297
vn -0.08867 0.03738 -0.99536
vn -0.05709 0.02024 -0.99816
vn -0.05709 0.02024 0.99816
vn -0.08867 0.03738 0.99536
vn 0.16482 -0.98632 0.00000
vn 0.14849 -0.98891 0.00000
vn -0.01970 0.11945 -0.99264
vn 0.11572 -0.99328 0.00000
vn 0.09926 -0.99506 0.00000
vn -0.01371 0.11770 -0.99296
vn 0.02418 -0.99971 0.00000
vn 0.05351 -0.99857 0.00000
vn 0.05351 -0.99857 0.00000
vn -0.00287 0.11833 -0.99297
vn -0.00634 0.11819 -0.99297
vn 0.00153 -0.20733 -0.97827
vn 0.00156 -0.18707 -0.98235
vn 0.00039 0.22328 -0.97476
vn 0.00024 0.21904 -0.97572
vn 0.00026 0.07472 0.99720
vn 0.00153 -0.20733 0.97827
vn 0.00104 -0.18707 0.98235
vn 0.00027 0.22186 0.97508
vn 0.00075 0.22750 0.97378
vn 0.00000 0.21904 -0.97572
vn 0.00000 -0.18707 -0.98235
vn 0.00000 -0.18707 0.98235
vn 0.00000 0.21904 0.97572
vn -0.00089 0.11045 -0.99388
vn 0.00027 -0.03406 -0.99942
vn 0.00027 -0.03406 0.99942
vn -0.00089 0.11045 0.99388
vn -1.00000 0.00000 0.00000
vn -1.00000 0.00000 0.00000
vn -0.00286 0.11834 -0.99297
vn 0.08279 -0.99657 0.00000
vn -0.00981 0.11804 -0.99296
vn 0.16869 -0.98567 0.00000
vn 0.18687 -0.98238 0.00000
vn 0.18687 -0.98238 0.00000
vn 0.15043 -0.98862 0.00000
vn -0.14923 0.98880 0.00000
vn -0.05126 0.24591 0.96794
vn -0.04289 0.28098 0.95875
vn 0.11572 -0.99328 0.00000
vn 0.09927 -0.99506 0.00000
vn -0.09926 0.99506 0.00000
vn -0.02822 0.28284 0.95875
vn 0.06562 -0.99784 0.00000
vn 0.04842 -0.99883 0.00000
vn -0.01265 0.28398 0.95875
vn -0.97487 -0.22276 0.00000
vn -0.98121 -0.19294 0.00000
vn -0.96764 -0.25235 0.00000
vn -0.96764 -0.25235 0.00000
vn -0.98663 -0.16297 0.00000
vn -0.98663 -0.16297 0.00000
vn 0.03120 -0.99951 0.00000
vn -0.02071 0.99979 0.00000
vn 0.00261 0.25141 -0.96788
vn 0.01565 -0.25129 -0.96778
vn 0.99984 0.01810 0.00000
vn 0.99992 -0.01239 0.00000
vn 0.99882 0.04854 0.00000
vn 0.99882 0.04854 0.00000
vn 0.99908 -0.04285 0.00000
vn 0.07630 -0.20208 -0.97639
vn -0.00645 -0.17106 -0.98524
vn 0.08850 -0.19242 -0.97731
vn 0.06042 -0.12224 -0.99066
vn 0.06042 -0.12224 0.99066
vn 0.08851 -0.19242 0.97731
vn 0.55259 0.83346 -0.00001
vn 0.58180 0.81333 0.00000
vn -0.07131 -0.10668 -0.99173
vn 0.63955 0.76875 0.00000
vn 0.66799 0.74417 0.00000
vn -0.07806 -0.09394 -0.99251
vn 0.78805 0.61561 0.00000
vn 0.74353 0.66870 0.00000
vn 0.74353 0.66870 0.00000
vn -0.09340 -0.07297 -0.99295
vn -0.08855 -0.07972 -0.99288
vn 0.17173 0.12261 -0.97749
vn 0.15809 0.11317 -0.98092
vn -0.18708 -0.12945 -0.97378
vn -0.18709 -0.12944 -0.97378
vn -0.56899 0.82234 0.00000
vn -0.56899 0.82234 0.00000
vn -0.06385 -0.04418 0.99698
vn 0.17173 0.12261 0.97749
vn 0.15868 0.11232 0.98092
vn -0.18709 -0.12945 0.97378
vn -0.18708 -0.12945 0.97378
vn -0.18709 -0.12944 -0.97378
vn 0.15986 0.11061 -0.98092
vn 0.15987 0.11060 0.98092
vn -0.18709 -0.12945 0.97378
vn -0.08961 -0.06459 -0.99388
vn -0.08961 -0.06459 -0.99388
vn 0.02764 0.01992 -0.99942
vn 0.02764 0.01992 -0.99942
vn 0.02764 0.01992 0.99942
vn 0.02764 0.01992 0.99942
vn -0.08961 -0.06459 0.99388
vn -0.08961 -0.06459 0.99388
vn 0.56899 -0.82234 0.00004
vn 0.56899 -0.82235 0.00003
vn 0.56899 -0.82235 0.00001
vn 0.56899 -0.82234 0.00000
vn 0.56899 -0.82234 -0.00002
vn 0.56900 -0.82234 0.00000
vn -0.62421 0.78126 0.00000
vn -0.59793 0.80155 0.00000
vn -0.64983 0.76008 0.00000
vn 0.64984 -0.76007 0.00000
vn 0.12301 -0.16489 -0.97861
vn 0.13147 -0.15393 -0.97930
vn -0.69806 0.71604 0.00000
vn -0.72071 0.69323 0.00000
vn 0.72071 -0.69323 0.00000
vn 0.14333 -0.13795 -0.98001
vn -0.76727 0.64132 0.00000
vn -0.79089 0.61196 0.00000
vn 0.77920 -0.62677 0.00000
vn 0.15345 -0.12349 -0.98041
vn 0.15973 -0.11426 0.98052
vn -0.15973 0.11425 0.98053
vn 0.53825 0.84278 0.00000
vn 0.53826 0.84278 0.00000
vn 0.53825 0.84279 0.00000
vn 0.53825 0.84279 0.00000
vn 0.53826 0.84278 0.00000
vn 0.53826 0.84278 0.00000
vn -0.67307 0.73958 0.00003
vn -0.67307 0.73958 0.00006
vn -0.67307 0.73958 0.00000
vn 0.05989 -0.06580 -0.99603
vn 0.05989 -0.06581 -0.99603
vn -0.10328 0.12166 -0.98718
vn -0.09512 0.11182 -0.98916
vn 0.10997 -0.13268 -0.98504
vn 0.10997 -0.13268 -0.98504
vn -0.76991 -0.63815 0.00001
vn -0.76991 -0.63815 0.00000
vn -0.76991 -0.63815 0.00000
vn -0.76991 -0.63815 0.00000
vn -0.76991 -0.63815 0.00000
vn 0.03715 -0.04482 0.99830
vn -0.10328 0.12166 0.98718
vn -0.09464 0.11222 0.98917
vn 0.10997 -0.13268 0.98504
vn 0.10997 -0.13268 0.98504
vn 0.10997 -0.13268 -0.98504
vn -0.09368 0.11302 -0.98917
vn -0.09368 0.11302 0.98917
vn 0.10997 -0.13268 0.98504
vn 0.05391 -0.06304 -0.99655
vn 0.05391 -0.06304 -0.99655
vn -0.01659 0.01940 -0.99967
vn -0.01659 0.01940 -0.99967
vn -0.01659 0.01940 0.99967
vn -0.01659 0.01940 0.99967
vn 0.05390 -0.06304 0.99655
vn 0.05390 -0.06304 0.99655
vn 0.76992 0.63814 -0.00002
vn 0.76993 0.63813 -0.00004
vn 0.76992 0.63814 -0.00001
vn 0.76992 0.63815 0.00001
vn 0.76991 0.63815 0.00001
vn 0.76991 0.63815 0.00002
vn -0.02713 0.13055 -0.99107
vn 0.02733 0.11013 -0.99354
vn -0.03716 0.12422 -0.99156
vn -0.02645 0.07865 -0.99655
vn -0.02645 0.07866 0.99655
vn -0.03716 0.12424 0.99156
vn -0.68467 -0.72886 -0.00002
vn -0.70600 -0.70821 0.00000
vn 0.06464 0.06834 -0.99557
vn 0.08554 -0.02726 0.99596
vn 0.08554 -0.02726 0.99596
vn -0.95279 0.30363 0.00001
vn -0.95279 0.30363 0.00003
vn -0.95279 0.30363 0.00000
vn 0.07063 0.05540 -0.99596
vn 0.07063 0.05540 -0.99596
vn -0.78683 -0.61717 -0.00001
vn -0.78683 -0.61717 -0.00001
vn -0.78683 -0.61717 0.00000
vn -0.72670 -0.68695 0.00000
vn 0.06619 0.06257 -0.99584
vn 0.08438 -0.03431 -0.99584
vn 0.08438 -0.03431 -0.99584
vn -0.92634 0.37670 -0.00004
vn -0.92634 0.37670 0.00000
vn -0.92633 0.37670 -0.00008
vn 0.07063 0.05540 -0.99596
vn 0.07063 0.05540 -0.99596
vn -0.78683 -0.61717 -0.00003
vn -0.78683 -0.61717 -0.00005
vn -0.78683 -0.61717 0.00000
vn -0.08270 -0.03495 0.99596
vn -0.08269 -0.03494 0.99596
vn 0.92113 0.38926 -0.00006
vn 0.92113 0.38926 -0.00008
vn 0.92113 0.38926 -0.00005
# 589 normal vertices

g sheath
f 7/3/7 11/2/11 17/1/17
f 12/2/12 9/3/9 15/4/15
f 9/3/364 7/3/363 13/4/13
f 15/4/365 9/3/364 13/4/13
f 11/2/11 8/6/8 14/5/14
f 17/1/17 11/2/11 14/5/14
f 8/6/366 10/6/10 16/5/16
f 14/5/367 8/6/366 16/5/16
f 10/6/368 12/2/12 18/1/18
f 16/5/369 10/6/368 18/1/18
f 13/4/370 17/1/17 23/1/23
f 19/4/19 13/4/370 23/1/23
f 18/1/18 15/4/15 21/4/21
f 24/1/24 18/1/18 21/4/21
f 15/4/365 13/4/13 19/4/371
f 21/4/372 15/4/365 19/4/371
f 17/1/17 14/5/14 20/5/20
f 23/1/23 17/1/17 20/5/20
f 14/5/367 16/5/16 22/5/22
f 20/5/373 14/5/367 22/5/22
f 16/5/369 18/1/18 24/1/24
f 22/5/374 16/5/369 24/1/24
f 19/4/19 23/1/23 29/1/29
f 25/4/25 19/4/19 29/1/29
f 24/1/24 21/4/21 27/4/27
f 30/1/30 24/1/24 27/4/27
f 21/4/372 19/4/371 25/4/375
f 27/4/376 21/4/372 25/4/375
f 23/1/23 20/5/20 26/5/26
f 29/1/29 23/1/23 26/5/26
f 20/5/373 22/5/22 28/5/28
f 26/5/377 20/5/373 28/5/28
f 22/5/374 24/1/24 30/1/30
f 28/5/378 22/5/374 30/1/30
f 33/3/33 36/2/36 35/2/35
f 31/3/31 33/3/33 35/2/35
f 36/2/36 34/6/34 32/6/32
f 35/2/35 36/2/36 32/6/32
f 3/4/3 6/1/6 30/1/30
f 27/4/27 3/4/3 30/1/30
f 1/4/1 3/4/1 27/4/376
f 25/4/375 1/4/1 27/4/376
f 4/5/4 28/5/378 30/1/30
f 6/1/6 4/5/4 30/1/30
f 2/5/2 26/5/377 28/5/28
f 4/5/2 2/5/2 28/5/28
f 2/5/379 5/1/5 29/1/29
f 26/5/26 2/5/379 29/1/29
f 5/1/5 1/4/380 25/4/25
f 29/1/29 5/1/5 25/4/25
f 4/5/85 6/1/85 5/1/85
f 2/5/85 4/5/85 5/1/85
f 6/1/85 3/4/85 1/4/85
f 5/1/85 6/1/85 1/4/85
f 18/1/18 12/2/12 15/4/15
f 17/1/17 13/4/370 7/3/7
g sheath_luminous
f 40/9/40 38/8/38 37/7/37
f 41/10/41 40/9/40 37/7/37
f 38/8/38 40/9/40 39/11/39
f 42/12/42 38/8/38 39/11/39
f 44/8/44 46/9/46 43/7/43
f 46/9/46 47/10/47 43/7/43
f 46/9/46 44/8/44 45/11/45
f 44/8/44 48/12/48 45/11/45
g blade
f 70/15/65 67/14/62 72/13/67
f 67/14/382 69/16/64 72/13/381
f 66/18/61 68/18/63 71/17/66
f 49/20/49 51/19/51 53/19/51
f 55/20/49 49/20/49 53/19/51
f 56/22/50 54/21/53 52/21/52
f 50/22/50 56/22/50 52/21/52
f 49/25/49 55/24/49 59/23/54
f 57/26/54 49/25/49 59/23/54
f 56/29/50 50/28/50 58/27/55
f 60/30/55 56/29/50 58/27/55
f 66/18/384 71/17/383 72/13/381
f 69/16/64 66/18/384 72/13/381
f 68/18/385 70/15/65 72/13/67
f 71/17/386 68/18/385 72/13/67
f 69/16/64 76/32/71 73/31/68
f 66/33/384 69/16/64 73/31/68
f 70/15/65 68/33/385 75/31/70
f 77/32/72 70/15/65 75/31/70
f 68/33/63 66/33/61 73/31/387
f 75/31/388 68/33/63 73/31/387
f 70/15/65 77/32/72 74/34/69
f 67/14/62 70/15/65 74/34/69
f 69/16/64 67/14/382 74/34/389
f 76/32/71 69/16/64 74/34/389
f 73/31/68 76/32/71 81/35/76
f 78/36/73 73/31/68 81/35/76
f 77/32/72 75/31/70 80/36/75
f 82/35/77 77/32/72 80/36/75
f 75/31/388 73/31/387 78/36/390
f 80/36/391 75/31/388 78/36/390
f 74/34/69 77/32/72 82/35/77
f 79/37/74 74/34/69 82/35/77
f 76/32/71 74/34/389 79/37/392
f 81/35/76 76/32/71 79/37/392
f 86/40/81 64/39/59 61/38/56
f 83/41/78 86/40/81 61/38/56
f 78/36/73 81/35/76 86/40/81
f 83/41/78 78/36/73 86/40/81
f 85/41/80 63/38/58 65/39/60
f 87/40/82 85/41/80 65/39/60
f 82/35/77 80/36/75 85/41/80
f 87/40/82 82/35/77 85/41/80
f 83/41/394 61/38/393 63/38/393
f 85/41/395 83/41/394 63/38/393
f 80/36/391 78/36/390 83/41/394
f 85/41/395 80/36/391 83/41/394
f 87/40/82 65/39/60 62/42/57
f 84/43/79 87/40/82 62/42/57
f 79/37/74 82/35/77 87/40/82
f 84/43/79 79/37/74 87/40/82
f 84/43/397 62/42/396 64/39/59
f 86/40/81 84/43/397 64/39/59
f 81/35/76 79/37/392 84/43/397
f 86/40/81 81/35/76 84/43/397
f 89/45/84 88/44/83 51/19/398
f 49/20/399 89/45/84 51/19/398
f 89/45/84 50/22/401 52/21/400
f 88/44/83 89/45/84 52/21/400
f 51/48/85 88/47/85 90/46/85
f 53/49/85 51/48/85 90/46/85
f 88/47/85 52/51/85 54/50/85
f 90/46/85 88/47/85 54/50/85
f 53/19/403 90/44/402 91/45/86
f 55/20/404 53/19/403 91/45/86
f 90/44/402 54/21/406 56/22/405
f 91/45/86 90/44/402 56/22/405
f 50/28/401 89/53/84 92/52/87
f 58/27/407 50/28/401 92/52/87
f 89/54/84 49/25/399 57/26/408
f 92/55/87 89/54/84 57/26/408
f 55/24/404 91/57/86 93/56/88
f 59/23/409 55/24/404 93/56/88
f 91/57/86 56/29/405 60/30/410
f 93/56/88 91/57/86 60/30/410
f 94/60/89 96/59/89 100/58/89
f 98/61/89 94/60/89 100/58/89
f 97/64/90 95/63/90 99/62/90
f 101/65/90 97/64/90 99/62/90
f 95/63/411 102/67/91 104/66/93
f 99/62/411 95/63/411 104/66/93
f 102/67/91 94/60/412 98/61/412
f 104/66/93 102/67/91 98/61/412
f 96/59/413 103/69/92 105/68/94
f 100/58/413 96/59/413 105/68/94
f 103/69/92 97/64/414 101/65/414
f 105/68/94 103/69/92 101/65/414
f 101/65/415 99/62/415 104/66/415
f 98/61/415 101/65/415 104/66/415
f 105/68/415 101/65/415 98/61/415
f 100/58/416 105/68/415 98/61/415
f 58/27/415 93/56/415 60/30/416
f 58/27/415 92/52/415 93/56/415
f 92/52/415 57/26/416 59/23/415
f 92/52/415 59/23/415 93/56/415
g blade_damaged
f 106/71/49 108/70/51 110/70/51
f 112/71/49 106/71/49 110/70/51
f 113/73/50 111/72/53 109/72/52
f 107/73/50 113/73/50 109/72/52
f 106/25/49 112/24/49 116/23/54
f 114/26/54 106/25/49 116/23/54
f 113/29/50 107/28/50 115/27/55
f 117/30/55 113/29/50 115/27/55
f 126/40/98 121/39/59 118/38/56
f 123/41/95 126/40/98 118/38/56
f 125/41/97 120/38/58 122/39/60
f 127/40/99 125/41/97 122/39/60
f 123/41/393 118/38/393 120/38/393
f 125/41/393 123/41/393 120/38/393
f 127/40/99 122/39/60 119/42/57
f 124/43/96 127/40/99 119/42/57
f 124/43/417 119/42/396 121/39/59
f 126/40/98 124/43/417 121/39/59
f 129/75/84 128/74/83 108/70/398
f 106/71/399 129/75/84 108/70/398
f 129/75/84 107/73/401 109/72/400
f 128/74/83 129/75/84 109/72/400
f 108/48/85 128/47/85 130/46/85
f 110/49/85 108/48/85 130/46/85
f 128/47/85 109/51/85 111/50/85
f 130/46/85 128/47/85 111/50/85
f 110/70/403 130/74/402 131/75/86
f 112/71/404 110/70/403 131/75/86
f 130/74/402 111/72/406 113/73/405
f 131/75/86 130/74/402 113/73/405
f 107/28/401 129/53/84 132/52/87
f 115/27/407 107/28/401 132/52/87
f 129/54/84 106/25/399 114/26/408
f 132/55/87 129/54/84 114/26/408
f 112/24/404 131/57/86 133/56/88
f 116/23/409 112/24/404 133/56/88
f 131/57/86 113/29/405 117/30/410
f 133/56/88 131/57/86 117/30/410
f 134/60/89 136/59/89 140/58/89
f 138/61/89 134/60/89 140/58/89
f 137/64/90 135/63/90 139/62/90
f 141/65/90 137/64/90 139/62/90
f 135/63/411 142/67/91 144/66/93
f 139/62/411 135/63/411 144/66/93
f 142/67/91 134/60/412 138/61/412
f 144/66/93 142/67/91 138/61/412
f 136/59/413 143/69/92 145/68/94
f 140/58/413 136/59/413 145/68/94
f 143/69/92 137/64/414 141/65/414
f 145/68/94 143/69/92 141/65/414
f 141/65/415 139/62/415 144/66/415
f 138/61/415 141/65/415 144/66/415
f 145/68/415 141/65/415 138/61/415
f 140/58/416 145/68/415 138/61/415
f 115/27/415 133/56/415 117/30/416
f 115/27/415 132/52/415 133/56/415
f 132/52/415 114/26/416 116/23/415
f 132/52/415 116/23/415 133/56/415
g blade_fragment
f 150/15/65 147/14/62 152/13/67
f 147/14/382 149/16/64 152/13/381
f 146/18/61 148/18/63 151/17/66
f 146/18/384 151/17/383 152/13/381
f 149/16/64 146/18/384 152/13/381
f 148/18/385 150/15/65 152/13/67
f 151/17/386 148/18/385 152/13/67
f 149/16/64 156/32/71 153/31/68
f 146/33/384 149/16/64 153/31/68
f 150/15/65 148/33/385 155/31/70
f 157/32/72 150/15/65 155/31/70
f 148/33/63 146/33/61 153/31/387
f 155/31/388 148/33/63 153/31/387
f 150/15/65 157/32/72 154/34/69
f 147/14/62 150/15/65 154/34/69
f 149/16/64 147/14/382 154/34/389
f 156/32/71 149/16/64 154/34/389
f 153/31/68 156/32/71 161/35/76
f 158/36/73 153/31/68 161/35/76
f 157/32/72 155/31/70 160/36/75
f 162/35/77 157/32/72 160/36/75
f 155/31/388 153/31/387 158/36/390
f 160/36/391 155/31/388 158/36/390
f 154/34/69 157/32/72 162/35/77
f 159/37/74 154/34/69 162/35/77
f 156/32/71 154/34/389 159/37/392
f 161/35/76 156/32/71 159/37/392
f 158/36/73 161/35/76 166/40/103
f 163/41/100 158/36/73 166/40/103
f 162/35/77 160/36/75 165/41/102
f 167/40/104 162/35/77 165/41/102
f 160/36/391 158/36/390 163/41/418
f 165/41/418 160/36/391 163/41/418
f 159/37/74 162/35/77 167/40/104
f 164/43/101 159/37/74 167/40/104
f 161/35/76 159/37/392 164/43/419
f 166/40/103 161/35/76 164/43/419
g effect
f 174/78/111 178/77/115 184/76/121
f 180/79/117 174/78/111 184/76/121
f 176/82/113 182/81/119 185/80/122
f 179/83/116 176/82/113 185/80/122
f 176/84/422 174/78/421 180/79/420
f 182/85/423 176/84/422 180/79/420
f 175/87/112 181/86/118 184/76/121
f 178/77/115 175/87/112 184/76/121
f 175/87/114 177/89/114 183/88/120
f 181/86/424 175/87/114 183/88/120
f 177/89/425 179/83/116 185/80/122
f 183/88/426 177/89/425 185/80/122
f 180/79/117 184/76/121 190/90/127
f 186/91/123 180/79/117 190/90/127
f 185/80/122 182/81/119 188/92/125
f 191/93/128 185/80/122 188/92/125
f 182/85/423 180/79/420 186/91/427
f 188/94/428 182/85/423 186/91/427
f 184/76/121 181/86/118 187/95/124
f 190/90/127 184/76/121 187/95/124
f 181/86/424 183/88/120 189/96/126
f 187/95/429 181/86/424 189/96/126
f 183/88/426 185/80/122 191/93/128
f 189/96/430 183/88/426 191/93/128
f 186/91/123 190/90/127 196/97/133
f 192/98/129 186/91/123 196/97/133
f 191/93/128 188/92/125 194/99/131
f 197/100/134 191/93/128 194/99/131
f 188/94/428 186/91/427 192/98/431
f 194/101/432 188/94/428 192/98/431
f 190/90/127 187/95/124 193/102/130
f 196/97/133 190/90/127 193/102/130
f 187/95/429 189/96/126 195/103/132
f 193/102/132 187/95/429 195/103/132
f 189/96/430 191/93/128 197/100/134
f 195/103/433 189/96/430 197/100/134
f 176/106/436 179/105/435 178/104/434
f 174/107/437 176/106/436 178/104/434
f 179/105/435 177/109/439 175/108/438
f 178/104/434 179/105/435 175/108/438
f 170/111/107 173/110/110 197/100/134
f 194/99/131 170/111/107 197/100/134
f 168/113/105 170/112/440 194/101/432
f 192/98/431 168/113/105 194/101/432
f 171/114/108 195/103/433 197/100/134
f 173/110/110 171/114/108 197/100/134
f 169/115/106 193/102/132 195/103/132
f 171/114/441 169/115/106 195/103/132
f 169/115/442 172/116/109 196/97/133
f 193/102/130 169/115/442 196/97/133
f 168/113/443 192/98/129 196/97/133
f 172/116/109 168/113/443 196/97/133
f 171/119/446 173/118/445 172/117/444
f 169/120/447 171/119/446 172/117/444
f 173/118/445 170/122/448 168/121/448
f 172/117/444 173/118/445 168/121/448
g item_blade
f 227/125/161 224/124/158 229/123/163
f 224/124/450 226/126/160 229/123/449
f 223/128/157 225/128/159 228/127/162
f 206/130/143 208/129/145 210/129/147
f 212/130/148 206/130/143 210/129/147
f 213/132/144 211/131/146 209/131/146
f 207/132/144 213/132/144 209/131/146
f 206/135/143 212/134/148 216/133/151
f 214/136/149 206/135/143 216/133/151
f 213/139/144 207/138/144 215/137/150
f 217/140/150 213/139/144 215/137/150
f 223/128/452 228/127/451 229/123/449
f 226/126/160 223/128/452 229/123/449
f 225/128/453 227/125/161 229/123/163
f 228/127/454 225/128/453 229/123/163
f 226/126/160 233/142/167 230/141/164
f 223/143/452 226/126/160 230/141/164
f 227/125/161 225/143/453 232/141/166
f 234/142/168 227/125/161 232/141/166
f 225/143/159 223/143/157 230/141/455
f 232/141/456 225/143/159 230/141/455
f 227/125/161 234/142/168 231/144/165
f 224/124/158 227/125/161 231/144/165
f 226/126/160 224/124/450 231/144/457
f 233/142/167 226/126/160 231/144/457
f 230/141/164 233/142/167 238/145/172
f 235/146/169 230/141/164 238/145/172
f 234/142/168 232/141/166 237/146/171
f 239/145/173 234/142/168 237/146/171
f 232/141/456 230/141/455 235/146/458
f 237/146/459 232/141/456 235/146/458
f 231/144/165 234/142/168 239/145/173
f 236/147/170 231/144/165 239/145/173
f 233/142/167 231/144/457 236/147/460
f 238/145/172 233/142/167 236/147/460
f 243/150/177 221/149/155 218/148/152
f 240/151/174 243/150/177 218/148/152
f 235/146/169 238/145/172 243/150/177
f 240/151/174 235/146/169 243/150/177
f 242/151/176 220/148/154 222/149/156
f 244/150/178 242/151/176 222/149/156
f 239/145/173 237/146/171 242/151/176
f 244/150/178 239/145/173 242/151/176
f 240/151/462 218/148/461 220/148/461
f 242/151/463 240/151/462 220/148/461
f 237/146/459 235/146/458 240/151/462
f 242/151/463 237/146/459 240/151/462
f 244/150/178 222/149/156 219/152/153
f 241/153/175 244/150/178 219/152/153
f 236/147/170 239/145/173 244/150/178
f 241/153/175 236/147/170 244/150/178
f 241/153/465 219/152/464 221/149/155
f 243/150/177 241/153/465 221/149/155
f 238/145/172 236/147/460 241/153/465
f 243/150/177 238/145/172 241/153/465
f 246/155/180 245/154/179 208/129/466
f 206/130/467 246/155/180 208/129/466
f 246/155/180 207/132/469 209/131/468
f 245/154/179 246/155/180 209/131/468
f 208/158/470 245/157/181 247/156/181
f 210/159/471 208/158/470 247/156/181
f 245/157/181 209/161/471 211/160/470
f 247/156/181 245/157/181 211/160/470
f 210/129/473 247/154/472 248/155/182
f 212/130/474 210/129/473 248/155/182
f 247/154/472 211/131/476 213/132/475
f 248/155/182 247/154/472 213/132/475
f 207/138/469 246/163/180 249/162/183
f 215/137/477 207/138/469 249/162/183
f 246/164/180 206/135/467 214/136/478
f 249/165/183 246/164/180 214/136/478
f 212/134/474 248/167/182 250/166/184
f 216/133/479 212/134/474 250/166/184
f 248/167/182 213/139/475 217/140/480
f 250/166/184 248/167/182 217/140/480
f 251/170/185 253/169/187 257/168/185
f 255/171/189 251/170/185 257/168/185
f 254/174/188 252/173/186 256/172/188
f 258/175/190 254/174/188 256/172/188
f 252/173/481 259/177/191 261/176/193
f 256/172/482 252/173/481 261/176/193
f 259/177/191 251/170/484 255/171/483
f 261/176/193 259/177/191 255/171/483
f 253/169/485 260/179/192 262/178/194
f 257/168/486 253/169/485 262/178/194
f 260/179/192 254/174/488 258/175/487
f 262/178/194 260/179/192 258/175/487
f 258/175/491 256/172/490 261/176/489
f 255/171/492 258/175/491 261/176/489
f 262/178/493 258/175/491 255/171/492
f 257/168/494 262/178/493 255/171/492
f 269/182/201 273/181/205 279/180/211
f 275/183/207 269/182/201 279/180/211
f 274/181/206 271/182/203 277/183/209
f 280/180/212 274/181/206 277/183/209
f 271/182/496 269/182/496 275/183/495
f 277/183/497 271/182/496 275/183/495
f 273/181/205 270/185/202 276/184/208
f 279/180/211 273/181/205 276/184/208
f 270/185/204 272/185/204 278/184/210
f 276/184/498 270/185/204 278/184/210
f 272/185/499 274/181/206 280/180/212
f 278/184/500 272/185/499 280/180/212
f 275/183/207 279/180/211 285/180/217
f 281/183/213 275/183/207 285/180/217
f 280/180/212 277/183/209 283/183/215
f 286/180/218 280/180/212 283/183/215
f 277/183/497 275/183/495 281/183/501
f 283/183/502 277/183/497 281/183/501
f 279/180/211 276/184/208 282/184/214
f 285/180/217 279/180/211 282/184/214
f 276/184/498 278/184/210 284/184/216
f 282/184/503 276/184/498 284/184/216
f 278/184/500 280/180/212 286/180/218
f 284/184/504 278/184/500 286/180/218
f 281/183/213 285/180/217 291/180/223
f 287/183/219 281/183/213 291/180/223
f 286/180/218 283/183/215 289/183/221
f 292/180/224 286/180/218 289/183/221
f 283/183/502 281/183/501 287/183/505
f 289/183/506 283/183/502 287/183/505
f 285/180/217 282/184/214 288/184/220
f 291/180/223 285/180/217 288/184/220
f 282/184/503 284/184/216 290/184/222
f 288/184/507 282/184/503 290/184/222
f 284/184/504 286/180/218 292/180/224
f 290/184/508 284/184/504 292/180/224
f 295/182/227 298/181/230 297/181/229
f 293/182/225 295/182/227 297/181/229
f 298/181/230 296/185/228 294/185/226
f 297/181/229 298/181/230 294/185/226
f 265/183/197 268/180/200 292/180/224
f 289/183/221 265/183/197 292/180/224
f 263/183/195 265/183/195 289/183/506
f 287/183/505 263/183/195 289/183/506
f 266/184/198 290/184/508 292/180/224
f 268/180/200 266/184/198 292/180/224
f 264/184/196 288/184/507 290/184/222
f 266/184/196 264/184/196 290/184/222
f 264/184/509 267/180/199 291/180/223
f 288/184/220 264/184/509 291/180/223
f 267/180/199 263/183/510 287/183/219
f 291/180/223 267/180/199 287/183/219
f 266/184/513 268/180/512 267/180/511
f 264/184/514 266/184/513 267/180/511
f 268/180/512 265/183/516 263/183/515
f 267/180/511 268/180/512 263/183/515
f 199/188/136 198/187/135 202/186/139
f 203/189/140 199/188/136 202/186/139
f 201/190/138 199/188/136 203/189/140
f 205/191/142 201/190/138 203/189/140
f 200/192/137 201/190/138 205/191/142
f 204/193/141 200/192/137 205/191/142
f 198/187/135 200/192/137 204/193/141
f 202/186/139 198/187/135 204/193/141
f 204/196/141 205/195/142 203/194/140
f 202/197/139 204/196/141 203/194/140
f 303/200/235 299/199/231 300/198/232
f 304/201/236 303/200/235 300/198/232
f 304/201/236 300/198/232 302/202/234
f 306/203/238 304/201/236 302/202/234
f 306/203/238 302/202/234 301/204/233
f 305/205/237 306/203/238 301/204/233
f 305/205/237 301/204/233 299/199/231
f 303/200/235 305/205/237 299/199/231
f 304/208/236 306/207/238 305/206/237
f 303/209/235 304/208/236 305/206/237
g item_damaged
f 307/211/239 309/210/241 311/210/241
f 313/211/239 307/211/239 311/210/241
f 314/213/244 312/212/243 310/212/242
f 308/213/240 314/213/244 310/212/242
f 307/216/239 313/215/239 317/214/245
f 315/217/245 307/216/239 317/214/245
f 314/220/244 308/219/240 316/218/246
f 318/221/247 314/220/244 316/218/246
f 327/224/256 322/223/251 319/222/248
f 324/225/253 327/224/256 319/222/248
f 326/225/255 321/222/250 323/223/252
f 328/224/257 326/225/255 323/223/252
f 324/225/517 319/222/518 321/222/517
f 326/225/519 324/225/517 321/222/517
f 328/224/257 323/223/252 320/226/249
f 325/227/254 328/224/257 320/226/249
f 325/227/521 320/226/520 322/223/251
f 327/224/256 325/227/521 322/223/251
f 330/229/259 329/228/258 309/210/522
f 307/211/523 330/229/259 309/210/522
f 330/229/259 308/213/525 310/212/524
f 329/228/258 330/229/259 310/212/524
f 309/232/527 329/231/526 331/230/260
f 311/233/528 309/232/527 331/230/260
f 329/231/526 310/235/530 312/234/529
f 331/230/260 329/231/526 312/234/529
f 311/210/532 331/228/531 332/229/261
f 313/211/533 311/210/532 332/229/261
f 331/228/531 312/212/535 314/213/534
f 332/229/261 331/228/531 314/213/534
f 308/219/525 330/237/259 333/236/262
f 316/218/536 308/219/525 333/236/262
f 330/238/259 307/216/523 315/217/537
f 333/239/262 330/238/259 315/217/537
f 313/215/533 332/241/261 334/240/263
f 317/214/538 313/215/533 334/240/263
f 332/241/261 314/220/534 318/221/539
f 334/240/263 332/241/261 318/221/539
f 335/244/264 337/243/266 341/242/264
f 339/245/268 335/244/264 341/242/264
f 338/248/267 336/247/265 340/246/267
f 342/249/269 338/248/267 340/246/267
f 336/247/540 343/251/270 345/250/272
f 340/246/541 336/247/540 345/250/272
f 343/251/270 335/244/543 339/245/542
f 345/250/272 343/251/270 339/245/542
f 337/243/544 344/253/271 346/252/273
f 341/242/545 337/243/544 346/252/273
f 344/253/271 338/248/547 342/249/546
f 346/252/273 344/253/271 342/249/546
f 342/249/550 340/246/549 345/250/548
f 339/245/551 342/249/550 345/250/548
f 346/252/552 342/249/550 339/245/551
f 341/242/553 346/252/552 339/245/551
f 351/256/278 348/255/275 353/254/280
f 348/255/555 350/257/277 353/254/554
f 347/259/274 349/259/276 352/258/279
f 347/259/557 352/258/556 353/254/554
f 350/257/277 347/259/557 353/254/554
f 349/259/558 351/256/278 353/254/280
f 352/258/559 349/259/558 353/254/280
f 350/257/277 357/261/284 354/260/281
f 347/262/557 350/257/277 354/260/281
f 351/256/278 349/262/558 356/260/283
f 358/261/285 351/256/278 356/260/283
f 349/262/276 347/262/274 354/260/560
f 356/260/561 349/262/276 354/260/560
f 351/256/278 358/261/285 355/263/282
f 348/255/275 351/256/278 355/263/282
f 350/257/277 348/255/555 355/263/562
f 357/261/284 350/257/277 355/263/562
f 388/266/315 386/265/313 389/264/316
f 392/267/319 388/266/315 389/264/316
f 387/266/314 385/269/312 393/268/320
f 390/267/317 387/266/314 393/268/320
f 385/269/563 388/266/315 392/267/319
f 393/268/564 385/269/563 392/267/319
f 384/265/311 387/266/314 390/267/317
f 391/264/318 384/265/311 390/267/317
f 386/265/565 384/265/566 391/264/565
f 389/264/567 386/265/565 391/264/565
f 366/225/293 368/224/295 371/270/298
f 373/271/300 366/225/293 371/270/298
f 368/224/295 365/227/292 370/272/297
f 371/270/298 368/224/295 370/272/297
f 365/227/568 367/224/294 372/270/299
f 370/272/569 365/227/568 372/270/299
f 367/224/294 364/225/291 369/271/296
f 372/270/299 367/224/294 369/271/296
f 364/225/570 366/225/571 373/271/570
f 369/271/572 364/225/570 373/271/570
f 354/260/281 357/261/284 360/273/287
f 361/274/288 354/260/281 360/273/287
f 358/261/285 356/260/283 359/274/286
f 362/273/289 358/261/285 359/274/286
f 356/260/561 354/260/560 361/274/573
f 359/274/573 356/260/561 361/274/573
f 355/263/282 358/261/285 362/273/289
f 363/275/290 355/263/282 362/273/289
f 357/261/284 355/263/562 363/275/574
f 360/273/287 357/261/284 363/275/574
f 376/265/303 378/266/305 382/273/309
f 379/274/306 376/265/303 382/273/309
f 378/266/305 375/269/302 383/275/310
f 382/273/309 378/266/305 383/275/310
f 375/269/575 377/266/304 380/273/307
f 383/275/576 375/269/575 380/273/307
f 377/266/304 374/265/301 381/274/308
f 380/273/307 377/266/304 381/274/308
f 374/265/577 376/265/578 379/274/577
f 381/274/579 374/265/577 379/274/577
f 400/272/327 395/277/322 396/276/323
f 401/270/328 400/272/327 396/276/323
f 402/270/329 397/276/324 395/277/580
f 400/272/581 402/270/329 395/277/580
f 399/271/326 394/278/321 397/276/324
f 402/270/329 399/271/326 397/276/324
f 401/270/328 396/276/323 398/278/325
f 403/271/330 401/270/328 398/278/325
f 394/278/582 399/271/583 403/271/582
f 398/278/584 394/278/582 403/271/582
f 408/268/335 410/277/337 412/276/339
f 405/267/332 408/268/335 412/276/339
f 407/267/334 411/276/338 410/277/585
f 408/268/586 407/267/334 410/277/585
f 404/264/331 413/278/340 411/276/338
f 407/267/334 404/264/331 411/276/338
f 405/267/332 412/276/339 409/278/336
f 406/264/333 405/267/332 409/278/336
f 413/278/587 404/264/588 406/264/587
f 409/278/589 413/278/587 406/264/587
f 410/277/585 408/268/586 407/267/334
f 411/276/338 410/277/585 407/267/334
f 415/188/342 414/187/341 418/186/345
f 419/189/346 415/188/342 418/186/345
f 417/190/344 415/188/342 419/189/346
f 421/191/348 417/190/344 419/189/346
f 416/192/343 417/190/344 421/191/348
f 420/193/347 416/192/343 421/191/348
f 414/187/341 416/192/343 420/193/347
f 418/186/345 414/187/341 420/193/347
f 420/196/347 421/195/348 419/194/346
f 418/197/345 420/196/347 419/194/346
f 426/200/353 422/199/349 423/198/350
f 427/201/354 426/200/353 423/198/350
f 427/201/354 423/198/350 425/202/352
f 429/203/356 427/201/354 425/202/352
f 429/203/356 425/202/352 424/204/351
f 428/205/355 429/203/356 424/204/351
f 428/205/355 424/204/351 422/199/349
f 426/200/353 428/205/355 422/199/349
f 427/208/354 429/207/356 428/206/355
f 426/209/353 427/208/354 428/206/355
g item_bladens
f 451/125/161 448/124/158 453/123/163
f 448/124/450 450/126/160 453/123/449
f 447/128/157 449/128/159 452/127/162
f 430/130/143 432/129/145 434/129/147
f 436/130/148 430/130/143 434/129/147
f 437/132/144 435/131/146 433/131/146
f 431/132/144 437/132/144 433/131/146
f 430/135/143 436/134/148 440/133/151
f 438/136/149 430/135/143 440/133/151
f 437/139/144 431/138/144 439/137/150
f 441/140/150 437/139/144 439/137/150
f 447/128/452 452/127/451 453/123/449
f 450/126/160 447/128/452 453/123/449
f 449/128/453 451/125/161 453/123/163
f 452/127/454 449/128/453 453/123/163
f 450/126/160 457/142/167 454/141/164
f 447/143/452 450/126/160 454/141/164
f 451/125/161 449/143/453 456/141/166
f 458/142/168 451/125/161 456/141/166
f 449/143/159 447/143/157 454/141/455
f 456/141/456 449/143/159 454/141/455
f 451/125/161 458/142/168 455/144/165
f 448/124/158 451/125/161 455/144/165
f 450/126/160 448/124/450 455/144/457
f 457/142/167 450/126/160 455/144/457
f 454/141/164 457/142/167 462/145/172
f 459/146/169 454/141/164 462/145/172
f 458/142/168 456/141/166 461/146/171
f 463/145/173 458/142/168 461/146/171
f 456/141/456 454/141/455 459/146/458
f 461/146/459 456/141/456 459/146/458
f 455/144/165 458/142/168 463/145/173
f 460/147/170 455/144/165 463/145/173
f 457/142/167 455/144/457 460/147/460
f 462/145/172 457/142/167 460/147/460
f 467/150/177 445/149/155 442/148/152
f 464/151/174 467/150/177 442/148/152
f 459/146/169 462/145/172 467/150/177
f 464/151/174 459/146/169 467/150/177
f 466/151/176 444/148/154 446/149/156
f 468/150/178 466/151/176 446/149/156
f 463/145/173 461/146/171 466/151/176
f 468/150/178 463/145/173 466/151/176
f 464/151/462 442/148/461 444/148/461
f 466/151/463 464/151/462 444/148/461
f 461/146/459 459/146/458 464/151/462
f 466/151/463 461/146/459 464/151/462
f 468/150/178 446/149/156 443/152/153
f 465/153/175 468/150/178 443/152/153
f 460/147/170 463/145/173 468/150/178
f 465/153/175 460/147/170 468/150/178
f 465/153/465 443/152/464 445/149/155
f 467/150/177 465/153/465 445/149/155
f 462/145/172 460/147/460 465/153/465
f 467/150/177 462/145/172 465/153/465
f 470/155/180 469/154/179 432/129/466
f 430/130/467 470/155/180 432/129/466
f 470/155/180 431/132/469 433/131/468
f 469/154/179 470/155/180 433/131/468
f 432/158/470 469/157/181 471/156/181
f 434/159/471 432/158/470 471/156/181
f 469/157/181 433/161/471 435/160/470
f 471/156/181 469/157/181 435/160/470
f 434/129/473 471/154/472 472/155/182
f 436/130/474 434/129/473 472/155/182
f 471/154/472 435/131/476 437/132/475
f 472/155/182 471/154/472 437/132/475
f 431/138/469 470/163/180 473/162/183
f 439/137/477 431/138/469 473/162/183
f 470/164/180 430/135/467 438/136/478
f 473/165/183 470/164/180 438/136/478
f 436/134/474 472/167/182 474/166/184
f 440/133/479 436/134/474 474/166/184
f 472/167/182 437/139/475 441/140/480
f 474/166/184 472/167/182 441/140/480
f 475/170/185 477/169/187 481/168/185
f 479/171/189 475/170/185 481/168/185
f 478/174/188 476/173/186 480/172/188
f 482/175/190 478/174/188 480/172/188
f 476/173/481 483/177/191 485/176/193
f 480/172/482 476/173/481 485/176/193
f 483/177/191 475/170/484 479/171/483
f 485/176/193 483/177/191 479/171/483
f 477/169/485 484/179/192 486/178/194
f 481/168/486 477/169/485 486/178/194
f 484/179/192 478/174/488 482/175/487
f 486/178/194 484/179/192 482/175/487
f 482/175/491 480/172/490 485/176/489
f 479/171/492 482/175/491 485/176/489
f 486/178/493 482/175/491 479/171/492
f 481/168/494 486/178/493 479/171/492
f 488/188/136 487/187/135 491/186/139
f 492/189/140 488/188/136 491/186/139
f 490/190/138 488/188/136 492/189/140
f 494/191/142 490/190/138 492/189/140
f 489/192/137 490/190/138 494/191/142
f 493/193/141 489/192/137 494/191/142
f 487/187/135 489/192/137 493/193/141
f 491/186/139 487/187/135 493/193/141
f 493/196/141 494/195/142 492/194/140
f 491/197/139 493/196/141 492/194/140
f 499/200/235 495/199/231 496/198/232
f 500/201/236 499/200/235 496/198/232
f 500/201/236 496/198/232 498/202/234
f 502/203/238 500/201/236 498/202/234
f 502/203/238 498/202/234 497/204/233
f 501/205/237 502/203/238 497/204/233
f 501/205/237 497/204/233 495/199/231
f 499/200/235 501/205/237 495/199/231
f 500/208/236 502/207/238 501/206/237
f 499/209/235 500/208/236 501/206/237
g item_blade1
f 532/125/161 529/124/158 534/123/163
f 529/124/450 531/126/160 534/123/449
f 528/128/157 530/128/159 533/127/162
f 511/130/143 513/129/145 515/129/147
f 517/130/148 511/130/143 515/129/147
f 518/132/144 516/131/146 514/131/146
f 512/132/144 518/132/144 514/131/146
f 511/135/143 517/134/148 521/133/151
f 519/136/149 511/135/143 521/133/151
f 518/139/144 512/138/144 520/137/150
f 522/140/150 518/139/144 520/137/150
f 528/128/452 533/127/451 534/123/449
f 531/126/160 528/128/452 534/123/449
f 530/128/453 532/125/161 534/123/163
f 533/127/454 530/128/453 534/123/163
f 531/126/160 538/142/167 535/141/164
f 528/143/452 531/126/160 535/141/164
f 532/125/161 530/143/453 537/141/166
f 539/142/168 532/125/161 537/141/166
f 530/143/159 528/143/157 535/141/455
f 537/141/456 530/143/159 535/141/455
f 532/125/161 539/142/168 536/144/165
f 529/124/158 532/125/161 536/144/165
f 531/126/160 529/124/450 536/144/457
f 538/142/167 531/126/160 536/144/457
f 535/141/164 538/142/167 543/145/172
f 540/146/169 535/141/164 543/145/172
f 539/142/168 537/141/166 542/146/171
f 544/145/173 539/142/168 542/146/171
f 537/141/456 535/141/455 540/146/458
f 542/146/459 537/141/456 540/146/458
f 536/144/165 539/142/168 544/145/173
f 541/147/170 536/144/165 544/145/173
f 538/142/167 536/144/457 541/147/460
f 543/145/172 538/142/167 541/147/460
f 548/150/177 526/149/155 523/148/152
f 545/151/174 548/150/177 523/148/152
f 540/146/169 543/145/172 548/150/177
f 545/151/174 540/146/169 548/150/177
f 547/151/176 525/148/154 527/149/156
f 549/150/178 547/151/176 527/149/156
f 544/145/173 542/146/171 547/151/176
f 549/150/178 544/145/173 547/151/176
f 545/151/462 523/148/461 525/148/461
f 547/151/463 545/151/462 525/148/461
f 542/146/459 540/146/458 545/151/462
f 547/151/463 542/146/459 545/151/462
f 549/150/178 527/149/156 524/152/153
f 546/153/175 549/150/178 524/152/153
f 541/147/170 544/145/173 549/150/178
f 546/153/175 541/147/170 549/150/178
f 546/153/465 524/152/464 526/149/155
f 548/150/177 546/153/465 526/149/155
f 543/145/172 541/147/460 546/153/465
f 548/150/177 543/145/172 546/153/465
f 551/155/180 550/154/179 513/129/466
f 511/130/467 551/155/180 513/129/466
f 551/155/180 512/132/469 514/131/468
f 550/154/179 551/155/180 514/131/468
f 513/158/470 550/157/181 552/156/181
f 515/159/471 513/158/470 552/156/181
f 550/157/181 514/161/471 516/160/470
f 552/156/181 550/157/181 516/160/470
f 515/129/473 552/154/472 553/155/182
f 517/130/474 515/129/473 553/155/182
f 552/154/472 516/131/476 518/132/475
f 553/155/182 552/154/472 518/132/475
f 512/138/469 551/163/180 554/162/183
f 520/137/477 512/138/469 554/162/183
f 551/164/180 511/135/467 519/136/478
f 554/165/183 551/164/180 519/136/478
f 517/134/474 553/167/182 555/166/184
f 521/133/479 517/134/474 555/166/184
f 553/167/182 518/139/475 522/140/480
f 555/166/184 553/167/182 522/140/480
f 556/170/185 558/169/187 562/168/185
f 560/171/189 556/170/185 562/168/185
f 559/174/188 557/173/186 561/172/188
f 563/175/190 559/174/188 561/172/188
f 557/173/481 564/177/191 566/176/193
f 561/172/482 557/173/481 566/176/193
f 564/177/191 556/170/484 560/171/483
f 566/176/193 564/177/191 560/171/483
f 558/169/485 565/179/192 567/178/194
f 562/168/486 558/169/485 567/178/194
f 565/179/192 559/174/488 563/175/487
f 567/178/194 565/179/192 563/175/487
f 563/175/491 561/172/490 566/176/489
f 560/171/492 563/175/491 566/176/489
f 567/178/493 563/175/491 560/171/492
f 562/168/494 567/178/493 560/171/492
f 574/182/201 578/181/205 584/180/211
f 580/183/207 574/182/201 584/180/211
f 579/181/206 576/182/203 582/183/209
f 585/180/212 579/181/206 582/183/209
f 576/182/496 574/182/496 580/183/495
f 582/183/497 576/182/496 580/183/495
f 578/181/205 575/185/202 581/184/208
f 584/180/211 578/181/205 581/184/208
f 575/185/204 577/185/204 583/184/210
f 581/184/498 575/185/204 583/184/210
f 577/185/499 579/181/206 585/180/212
f 583/184/500 577/185/499 585/180/212
f 580/183/207 584/180/211 590/180/217
f 586/183/213 580/183/207 590/180/217
f 585/180/212 582/183/209 588/183/215
f 591/180/218 585/180/212 588/183/215
f 582/183/497 580/183/495 586/183/501
f 588/183/502 582/183/497 586/183/501
f 584/180/211 581/184/208 587/184/214
f 590/180/217 584/180/211 587/184/214
f 581/184/498 583/184/210 589/184/216
f 587/184/503 581/184/498 589/184/216
f 583/184/500 585/180/212 591/180/218
f 589/184/504 583/184/500 591/180/218
f 586/183/213 590/180/217 596/180/223
f 592/183/219 586/183/213 596/180/223
f 591/180/218 588/183/215 594/183/221
f 597/180/224 591/180/218 594/183/221
f 588/183/502 586/183/501 592/183/505
f 594/183/506 588/183/502 592/183/505
f 590/180/217 587/184/214 593/184/220
f 596/180/223 590/180/217 593/184/220
f 587/184/503 589/184/216 595/184/222
f 593/184/507 587/184/503 595/184/222
f 589/184/504 591/180/218 597/180/224
f 595/184/508 589/184/504 597/180/224
f 600/182/227 603/181/230 602/181/229
f 598/182/225 600/182/227 602/181/229
f 603/181/230 601/185/228 599/185/226
f 602/181/229 603/181/230 599/185/226
f 570/183/197 573/180/200 597/180/224
f 594/183/221 570/183/197 597/180/224
f 568/183/195 570/183/195 594/183/506
f 592/183/505 568/183/195 594/183/506
f 571/184/198 595/184/508 597/180/224
f 573/180/200 571/184/198 597/180/224
f 569/184/196 593/184/507 595/184/222
f 571/184/196 569/184/196 595/184/222
f 569/184/509 572/180/199 596/180/223
f 593/184/220 569/184/509 596/180/223
f 572/180/199 568/183/510 592/183/219
f 596/180/223 572/180/199 592/183/219
f 571/184/513 573/180/512 572/180/511
f 569/184/514 571/184/513 572/180/511
f 573/180/512 570/183/516 568/183/515
f 572/180/511 573/180/512 568/183/515
f 504/188/136 503/187/135 507/186/139
f 508/189/140 504/188/136 507/186/139
f 506/190/138 504/188/136 508/189/140
f 510/191/142 506/190/138 508/189/140
f 505/192/137 506/190/138 510/191/142
f 509/193/141 505/192/137 510/191/142
f 503/187/135 505/192/137 509/193/141
f 507/186/139 503/187/135 509/193/141
f 509/196/141 510/195/142 508/194/140
f 507/197/139 509/196/141 508/194/140
f 608/200/235 604/199/231 605/198/232
f 609/201/236 608/200/235 605/198/232
f 609/201/236 605/198/232 607/202/234
f 611/203/238 609/201/236 607/202/234
f 611/203/238 607/202/234 606/204/233
f 610/205/237 611/203/238 606/204/233
f 610/205/237 606/204/233 604/199/231
f 608/200/235 610/205/237 604/199/231
f 609/208/236 611/207/238 610/206/237
f 608/209/235 609/208/236 610/206/237
f 615/9/360 613/8/358 612/7/357
f 616/10/361 615/9/360 612/7/357
f 613/8/358 615/9/360 614/11/359
f 617/12/362 613/8/358 614/11/359
g item_blade_luminous
f 621/9/360 619/8/358 618/7/357
f 622/10/361 621/9/360 618/7/357
f 619/8/358 621/9/360 620/11/359
f 623/12/362 619/8/358 620/11/359
# 916 elements

